<svg xmlns="http://www.w3.org/2000/svg" viewBox="0 0 512 512">
  <path fill="#101112" d="M285.68 3.26c-.17 1.35.17 2.55 1.02 3.58a161.05 161.05 0 0 0 25.07 2.56c36.14-5.07 72.3-5.42 108.47-1.02.39-.57.9-.91 1.53-1.02 2.87 1.16 5.94 1.34 9.21.51 1.27-.71 1.27-1.22 0-1.53 10.59-.46 21.34-.81 32.23-1.02 8.36.71 16.72 1.4 25.07 2.05 1.68.22 3.22-.12 4.6-1.02.79 1.38 1.98 2.23 3.58 2.56-.48 1.33-.48 2.86 0 4.6-2.41.18-4.8.52-7.16 1.02-.21 28.14-.21 56.28 0 84.42 2.53 6.97 6.96 12.43 13.3 16.37l-1.02 1.02 2.05 5.12c-2.27 4.46-3.63 8.9-4.09 13.3-.1 7.47.07 15.14.51 23.02a84.076 84.076 0 0 1 3.58 15.35c-3.16 10.5-5.22 21.31-6.14 32.23 2.65 10.48 2.47 20.88-.51 31.21l-1.53 1.53c1.38 1.61 2.06 3.49 2.05 5.63l-3.07 16.37c.48 3.66.82 7.42 1.02 11.26a174.025 174.025 0 0 0-.51 46.05c.55 2.42 1.74 4.47 3.58 6.14-1.24.61-2.61.78-4.09.51.57.39.91.9 1.02 1.53-1.38.65-2.75 1.33-4.09 2.05-12.91-6.03-13.94-4.83-3.07 3.58 4.1 1.59 8.2 1.76 12.28.51-.75 1.58-2.11 2.43-4.09 2.56.89 2.37.21 4.42-2.05 6.14.47.42.81.94 1.02 1.53-.7 5.48-1.55 10.94-2.56 16.37a45.766 45.766 0 0 1-5.63 9.72c.61 4.1 1.29 8.2 2.05 12.28l-1.02 1.02c1.12 3.21 2.15 6.45 3.07 9.72-.07 8.81-.07 17.51 0 26.09-.93 4.8-1.95 9.57-3.07 14.33l1.02 1.02c-.91 5.48-1.93 10.94-3.07 16.37.35 3.07-.33 6.14-2.05 9.21.86 1.7.35 1.88-1.53.51-.68 1.36-.68 2.73 0 4.09 2.51-1.55 4.22-.87 5.12 2.05 2.68 7.33 5.75 14.5 9.21 21.49.38 6.22-2.52 8.44-8.7 6.65-1.46-2.24-3.18-4.3-5.12-6.14 2.03-4.92.32-8.5-5.12-10.74-2.84 2.31-5.91 2.99-9.21 2.05l-5.12 3.07c-1.97-.37-3.88-1.06-5.63-2.05h-10.23a5.02 5.02 0 0 0-.51 3.07c-7.73.34-15.47-.35-23.02-2.05a62.28 62.28 0 0 1-14.84 2.56c-8.54 6.14-17.07 6.14-25.58 0-5.31.58-10.42-.45-15.35-3.07 3.78-.43 3.95-1.29.51-2.56-5.96.75-11.93 1.77-17.91 3.07a7.063 7.063 0 0 1-4.09-2.05c-2.17 2.45-4.56 2.62-7.16.51-8.86-.68-17.75-.68-26.61 0-2.87.99-4.91 2.87-6.14 5.63a6.622 6.622 0 0 1-3.07-3.07c-6.04-.58-12.02-1.6-17.91-3.07-1.76.11-1.93.63-.51 1.53l-4.09 1.02c1.36.68 1.36 1.36 0 2.05-3.48 1.96-7.23 2.98-11.26 3.07-.9 1.62-2.26 2.65-4.09 3.07l-31.72 1.02c-3.64 1.65-7.4 3.02-11.26 4.09-9.72.89-19.32 2.77-28.65 5.63-4.99-2.25-10.11-2.6-15.35-1.02-6.25-.08-12.05-1.62-17.4-4.6l-5.12-.51c-7.3 3.06-14.97 5.11-23.02 6.14-3.78-.39-7.7-1.42-11.77-3.07-5.78 3.57-11.92 4.08-18.42 1.53a231.72 231.72 0 0 1-31.72-11.26l-15.86-2.56c-5.11.39-9.88 1.75-14.33 4.09-3.57-1.49-6.13-4.05-7.67-7.67l2.05-5.12c-1.66-7.54-.98-14.87 2.05-22a9.383 9.383 0 0 0-2.05-4.6c1.16-4.17 1.33-8.44.51-12.79l-1.02 8.19-1.53-18.42c1.98-10.54 1.81-21.11-.51-31.72-.51-4.6-3.07-7.16-7.67-7.67-6.72-6.11-10.64-13.78-11.77-23.02-3.57-2.89-5.27-6.64-5.12-11.26-.78 3.77-1.64 7.52-2.56 11.26.82-13.06-.2-25.85-3.07-38.37 1.07-2.79 2.6-5.34 4.6-7.67l1.53-6.14c-.47-14.36-1.49-28.7-3.07-42.98 2.68-20.38 2.68-41.02 0-61.4.17-5.13.51-10.25 1.02-15.35a239.498 239.498 0 0 1-3.07-44.51c.69-19.48 2.05-38.94 4.09-58.33-.77-9.73-1.62-19.45-2.56-29.16-.79-12.62-.62-25.27.51-37.86-.72-3.16-1.75-6.25-3.07-9.21.58-1.58 1.26-3.12 2.05-4.6 3.1-.55 6.17-1.23 9.21-2.05 10.21.43 20.45.43 30.7 0 2.66-.4 5.05-1.25 7.16-2.56C62.36 2 72.26 2 82.03 3.25c5.89 3.47 12.37 5.35 19.44 5.63 14.16 0 28.32-.51 42.47-1.53 8.58-.44 16.94.58 25.07 3.07 23.51-1.85 47.05-3.38 70.61-4.6 2.26-.19 4.31-.71 6.14-1.53 8.22-.28 16.41.06 24.56 1.02 2.19-2.66 5.09-4.37 8.7-5.12 2.54.55 4.76 1.57 6.65 3.07Z"/>
  <path fill="#c41f4b" d="M76.93 51.36c3.17 6.01 6.07 12.15 8.7 18.42 1.6 1.5 2.98 3.23 4.09 5.12-.92-3.9-2.45-7.65-4.6-11.26 1.28-.08 2.13-.76 2.56-2.05 2.06 2.4 4.47 4.48 7.16 6.14 1.51 4.98 4.58 7.36 9.21 7.16 5.74-2.28 10.51-6.37 14.33-12.28-.09 4.45-1.97 8.03-5.63 10.74 3.23 1.36 6.48 1.87 9.72 1.53.49-.94.67-2.02.51-3.07 2.76-.03 5.32.65 7.67 2.05 1.71-1.51 3.59-2.36 5.63-2.56-1.87-.92-3.23-2.28-4.09-4.09 2.14-3.86 4.72-7.46 7.67-10.74.59-3.97.08-7.72-1.53-11.26 2.86 2.53 6.27 3.56 10.23 3.07-.18 5.34-1.88 10.11-5.12 14.33.21.59.56 1.12 1.02 1.53-2.1 1.1-4.15 2.3-6.14 3.58 5.3 1.51 5.3 3.05 0 4.6 2.78.9 4.14 2.77 4.09 5.63-1.35-.17-2.55.17-3.58 1.02-1.13 3.45-3.01 6.35-5.63 8.7 2.93 1.96 5.67 4.19 8.19 6.65-3.77 3.36-8.04 4.73-12.79 4.09l-1.02 2.05-1.02-4.09c-.8 2.82-.29 5.38 1.53 7.67-1.59-.35-3.29-.86-5.12-1.53-3.39 1.91-6.8 3.79-10.23 5.63 1.16 1.77 1.68 3.65 1.53 5.63a83.21 83.21 0 0 0-2.56-3.07c-1.64-4.31-4.02-8.06-7.16-11.26 1.36 4.77 3.75 8.87 7.16 12.28.14 1.66-.54 2.85-2.05 3.58 1.3 6.29 1.13 12.6-.51 18.93-.7 2.62-2.24 4.49-4.6 5.63-6.79 3.26-11.91 1.55-15.35-5.12.47-.42.81-.94 1.02-1.53-.9-1.06-1.59-2.27-2.05-3.58 3.33-8.45.26-12.38-9.21-11.77a282.839 282.839 0 0 1-15.35-25.58l-2.05-3.07c-1.69-2.06-3.4-4.1-5.12-6.14v-1.02c-1-.72-2.02-1.41-3.07-2.05a7.022 7.022 0 0 0 1.02-4.09h3.07c4.8 1 9.57 1.85 14.33 2.56a82.148 82.148 0 0 0-22-7.67c-1.79.34-1.79 1.02 0 2.05.51 2.02.68 4.07.51 6.14.01 5.61-1.87 10.39-5.63 14.33-.62-3.86-1.65-3.86-3.07 0-.19-2.93-.7-5.66-1.53-8.19V70.8c2.41.17 4.8 0 7.16-.51-2.09-.31-4.15-.83-6.14-1.53-.73-8.37-1.41-16.73-2.05-25.07.14-.77.49-1.48 1.02-2.05 9.79-1.65 19.68-1.99 29.68-1.02 2.21 3.7 4.6 7.29 7.16 10.74Z"/>
  <path fill="#c81f4d" d="M125.02 42.15c10.05.25 20.28.42 30.7.51l-17.4 1.02c-1.27.71-1.27 1.22 0 1.53 1.61 3.54 2.12 7.29 1.53 11.26a58.33 58.33 0 0 0-7.67 10.74c.86 1.81 2.22 3.17 4.09 4.09-2.04.2-3.92 1.05-5.63 2.56-2.35-1.4-4.91-2.08-7.67-2.05a5.02 5.02 0 0 1-.51 3.07c-3.25.34-6.49-.17-9.72-1.53 3.66-2.71 5.53-6.3 5.63-10.74-3.81 5.91-8.59 10-14.33 12.28-4.63.2-7.7-2.19-9.21-7.16a30.495 30.495 0 0 1-7.16-6.14c-.43 1.29-1.28 1.97-2.56 2.05-2.2-4.42-4.95-8.55-8.19-12.28a35.959 35.959 0 0 0-5.12-10.23 95.634 95.634 0 0 1 20.47-3.07c11.07.58 21.99 1.94 32.74 4.09Z"/>
  <path fill="#6d1436" d="M390.05 39.08h3.07c1.23 3.69 2.25 7.45 3.07 11.26h-1.02c-.88-4.15-2.59-7.91-5.12-11.26Z"/>
  <path fill="#261120" d="M388 50.34c.56.06.9.4 1.02 1.02-2.66 4.7-5.74 9.16-9.21 13.3-.6-.75-.6-1.77 0-3.07 2.99-3.56 5.72-7.32 8.19-11.26Z"/>
  <path fill="#c51f4b" d="M393.12 39.08c6.51-.1 12.99.25 19.44 1.02 2.31 4.9 4.87 9.69 7.67 14.33a15.45 15.45 0 0 0 3.58 3.07 53.67 53.67 0 0 1 14.33-4.09c2.65.1 5.04.61 7.16 1.53 1.54-1.37 2.92-2.91 4.09-4.6-2.83-2.7-6.24-3.73-10.23-3.07v-5.12c5.99.33 11.79-.01 17.4-1.02 3.3-1.1 6.54-1.1 9.72 0a51.49 51.49 0 0 1 1.53 15.35c-.85 4.59-1.36 9.36-1.53 14.33l-7.67 5.63c2.92-.18 5.48-1.37 7.67-3.58.28.94.8 1.62 1.53 2.05a101.38 101.38 0 0 1 1.02 26.61c-1.24-.75-2.6-1.09-4.09-1.02-2.13-2.45-4.69-4.5-7.67-6.14-4.58 3.17-7.82 7.44-9.72 12.79-2.06.18-4.14 0-6.14-.51a28.14 28.14 0 0 1-2.56 10.23l-7.67 7.67c-2.98.39-6.05.9-9.21 1.53.06-3.55-1.48-6.28-4.6-8.19-3.13 1.43-5.86 3.48-8.19 6.14-.78-.07-1.29-.41-1.53-1.02-1.13-4.09-2.83-7.84-5.12-11.26.09-1.44-.27-2.87-1.02-4.09.82-2.28 2.19-2.62 4.09-1.02 1.97-2.53 3.85-2.53 5.63 0 .16-2.39.16-4.78 0-7.16.82 2.14 1.85 4.2 3.07 6.14-.87-4.85-2.07-9.64-3.58-14.33 2.35-5.62 1.16-10.06-3.58-13.3l-3.58-7.16c-.7-5.52-2.41-10.64-5.12-15.35.1-2.1-.58-3.81-2.05-5.12-.82-3.81-1.84-7.56-3.07-11.26Z"/>
  <path fill="#9b1b3d" d="M412.56 40.1c14.62.99 29.28 1.33 44 1.02-5.6 1.01-11.4 1.35-17.4 1.02v5.12c3.99-.66 7.4.37 10.23 3.07a25.955 25.955 0 0 1-4.09 4.6c-2.13-.92-4.51-1.43-7.16-1.53-4.94.7-9.76 2.07-14.33 4.09-1.35-.83-2.55-1.87-3.58-3.07-2.8-4.64-5.37-9.42-7.67-14.33Z"/>
  <path fill="#ba1f48" d="M388 50.34c2.96-.23 5.34-.23 7.16 0h1.02c1.46 1.31 2.15 3.02 2.05 5.12 1.3 4.75 2.49 9.53 3.58 14.33.39.57.9.91 1.53 1.02l3.58 7.16c4.74 3.25 5.93 7.68 3.58 13.3 1.51 4.69 2.71 9.48 3.58 14.33-1.22-1.94-2.25-4-3.07-6.14.16 2.39.16 4.78 0 7.16-1.78-2.53-3.66-2.53-5.63 0-1.91-1.6-3.27-1.26-4.09 1.02a7.022 7.022 0 0 1 1.02 4.09v1.02c-1.61-2.78-2.63-5.85-3.07-9.21 1.31-.91 1.31-1.93 0-3.07-.62.13-.96.47-1.02 1.02-.56-3.8-1.93-7.38-4.09-10.74l2.05-2.05c-2.12.23-4.17.06-6.14-.51-.97-1.61-.97-3.32 0-5.12-.98-4.79-2.51-5.48-4.6-2.05-1.11-.81-2.32-1.5-3.58-2.05-1.25 1.24-2.44 1.24-3.58 0-.76 1.1-1.78 1.78-3.07 2.05-1.18-.95-2.2-.95-3.07 0l-1.02-2.05c-.84 1.35-2.03 2.04-3.58 2.05a12.01 12.01 0 0 0 3.07-5.12c3.12-3.05 4.82-2.36 5.12 2.05h3.07c-.84-2.67-2.54-4.71-5.12-6.14 2.97-1.86 4.34-4.59 4.09-8.19-1.72.17-3.46 0-5.12-.51a14.85 14.85 0 0 0 5.63-2.56c.39.57.9.91 1.53 1.02-.6 1.3-.6 2.32 0 3.07a89.29 89.29 0 0 0 9.21-13.3c-.13-.62-.47-.96-1.02-1.02Z"/>
  <path fill="#431328" d="M76.93 51.36c3.24 3.73 5.99 7.85 8.19 12.28 2.15 3.61 3.69 7.36 4.6 11.26a23.496 23.496 0 0 0-4.09-5.12c-2.62-6.27-5.53-12.41-8.7-18.42Z"/>
  <path fill="#62122c" d="M398.24 55.45c2.71 4.71 4.41 9.83 5.12 15.35-.63-.11-1.14-.45-1.53-1.02-1.09-4.8-2.29-9.58-3.58-14.33Z"/>
  <path fill="#4f162a" d="M467.82 56.48V74.9c-.74-.43-1.25-1.11-1.53-2.05-2.2 2.21-4.76 3.41-7.67 3.58l7.67-5.63c.18-4.96.69-9.74 1.53-14.33Z"/>
  <path fill="#301419" d="M440.19 69.78c1.2-.22 2.23.12 3.07 1.02-1.59 1.33-2.61.99-3.07-1.02Z"/>
  <path fill="#611830" d="M373.68 71.82c2.58 1.43 4.28 3.47 5.12 6.14h-3.07c-.29-4.41-2-5.09-5.12-2.05.24-1.95 1.27-3.31 3.07-4.09Z"/>
  <path fill="#bf1f4c" d="M337.86 50.34c.06-.56.4-.9 1.02-1.02 1.87 3.06 3.75 6.13 5.63 9.21 1.36 5.17.17 9.6-3.58 13.3 2.69.63 4.9-.39 6.65-3.07l2.05-6.14c.97.78 1.48 1.8 1.53 3.07-.99 2.03-2.02 4.08-3.07 6.14-2.55 3.4-5.67 6.34-9.21 8.7-5.13 1.88-10.24 3.76-15.35 5.63-1.86-.15-3.9-.32-6.14-.51-1.5 2.51-3.4 4.76-5.63 6.65-2.46-1.13-5.02-1.3-7.67-.51 1.57 1.64 2.08 3.51 1.53 5.63-2.86.78-5.59 2.49-8.19 5.12-.94 1.55-1.47 3.31-1.53 5.12 2.26 3.97 3.96 7.89 5.12 11.77-3.15-.19-6.22-1.04-9.21-2.56-1.25.02-2.28.36-3.07 1.02-1.99-1.25-3.36-.57-4.09 2.05l-2.56-9.21c-.2 2.26-.71 4.31-1.53 6.14-.99-4.5-3.03-8.43-6.14-11.77 1.08-1.42 1.25-2.96.51-4.6-.67 1.22-1.18 1.22-1.53 0 2.77-6.21 5.5-12.35 8.19-18.42 2.73-.44 5.46-.95 8.19-1.53.64-.77 1.16-1.63 1.53-2.56.31.81.84 1.52 1.53 2.05.73-2.95 2.61-4.65 5.63-5.12 4.3-.43 8.57.25 12.79 2.05 3.32-1.18 6.21-.49 8.7 2.05 3.37-2.11 6.98-3.83 10.74-5.12.48-6.2-2.25-9.78-8.19-10.74a14.85 14.85 0 0 0 5.63-2.56c.39.57.9.91 1.53 1.02-.6 1.3-.6 2.32 0 3.07 3.27-4.12 6.34-8.38 9.21-12.79-.07-.78-.41-1.29-1.02-1.53Z"/>
  <path fill="#26101b" d="M57.48 75.92c-1.31-1.46-3.02-2.15-5.12-2.05.1 2.1-.58 3.81-2.05 5.12.17-2.06 0-4.13-.51-6.14-1.79-1.03-1.79-1.71 0-2.05 7.66 1.5 15.07 4.09 22 7.67-4.8-.71-9.58-1.57-14.33-2.56Z"/>
  <path fill="#291527" d="M115.81 75.92c3.9 1.28 3.9 2.31 0 3.07v-3.07Z"/>
  <path fill="#c61f4c" d="M390.05 39.08c2.53 3.35 4.23 7.1 5.12 11.26-1.82-.23-4.21-.23-7.16 0-2.47 3.94-5.2 7.7-8.19 11.26-.63-.11-1.14-.45-1.53-1.02a14.78 14.78 0 0 1-5.63 2.56c1.67.5 3.38.68 5.12.51.25 3.6-1.12 6.33-4.09 8.19-1.8.78-2.83 2.14-3.07 4.09-2.63 1.41-4.17 3.46-4.6 6.14.39-.57.9-.91 1.53-1.02 1.55-.01 2.75-.69 3.58-2.05l1.02 2.05c.87-.95 1.89-.95 3.07 0 1.29-.27 2.31-.95 3.07-2.05 1.14 1.24 2.33 1.24 3.58 0 1.27.55 2.47 1.23 3.58 2.05 2.09-3.43 3.63-2.75 4.6 2.05-.97 1.8-.97 3.5 0 5.12 1.97.57 4.02.74 6.14.51l-2.05 2.05c2.17 3.36 3.53 6.94 4.09 10.74l1.02 2.05c.44 3.36 1.46 6.43 3.07 9.21.38 3.68 1.4 7.09 3.07 10.23 1.11 3.32 1.28 6.73.51 10.23l-1.02-5.12c-3.06 4.43-6.13 8.86-9.21 13.3l-6.14-2.05-1.02 1.02c-3.15-3.27-7.08-4.63-11.77-4.09-3.13 0-6.24.52-9.21 1.53a28.956 28.956 0 0 1-9.21 4.6c-4.32-.5-8.75-.5-13.3 0-7.86-1.3-15.7-2.66-23.54-4.09-5.24 1.06-10.01 3.11-14.33 6.14 1.98-14.45-4.16-23.32-18.42-26.61.79-.66 1.82-1 3.07-1.02 2.99 1.51 6.06 2.37 9.21 2.56-1.16-3.88-2.86-7.8-5.12-11.77.07-1.81.6-3.57 1.53-5.12 2.6-2.63 5.33-4.33 8.19-5.12.55-2.12.04-3.99-1.53-5.63 2.66-.79 5.22-.62 7.67.51 2.23-1.89 4.13-4.14 5.63-6.65 2.24.19 4.28.36 6.14.51 5.11-1.87 10.22-3.75 15.35-5.63 3.54-2.35 6.66-5.29 9.21-8.7 1.05-2.06 2.08-4.11 3.07-6.14-.06-1.27-.57-2.29-1.53-3.07l-2.05 6.14c-1.75 2.68-3.97 3.7-6.65 3.07 3.75-3.7 4.94-8.13 3.58-13.3-1.88-3.08-3.76-6.15-5.63-9.21-.62.13-.96.47-1.02 1.02-2.47 3.94-5.2 7.7-8.19 11.26-.63-.11-1.14-.45-1.53-1.02a14.78 14.78 0 0 1-5.63 2.56c5.94.96 8.67 4.54 8.19 10.74-3.77 1.29-7.37 3-10.74 5.12-2.48-2.54-5.38-3.22-8.7-2.05-4.23-1.79-8.49-2.48-12.79-2.05-3.02.47-4.9 2.17-5.63 5.12-.7-.52-1.23-1.23-1.53-2.05a9.77 9.77 0 0 1-1.53 2.56c-2.72.58-5.45 1.09-8.19 1.53-.99-.72-2.02-1.41-3.07-2.05 1.82-1.73 2.33-3.78 1.53-6.14a22.077 22.077 0 0 0-5.12-6.14 9.718 9.718 0 0 1-1.53-4.6 27.29 27.29 0 0 1 6.65-10.74c.51-2.02.68-4.07.51-6.14 2.5.15 3.18-.7 2.05-2.56-2.7-1.99-5.77-3.01-9.21-3.07 3.04-.51 6.13-.68 9.21-.51 8.11.67 16.29 1.01 24.56 1.02a864.76 864.76 0 0 0 59.35-3.07c7.86.18 15.7.52 23.54 1.02Z"/>
  <path fill="#271121" d="M337.86 50.34c.61.24.95.75 1.02 1.53a165.73 165.73 0 0 1-9.21 12.79c-.6-.75-.6-1.77 0-3.07 2.99-3.56 5.72-7.32 8.19-11.26Z"/>
  <path fill="#591334" d="M370.61 75.92a12.01 12.01 0 0 1-3.07 5.12c-.63.11-1.14.45-1.53 1.02.44-2.68 1.97-4.73 4.6-6.14Z"/>
  <path fill="#391428" d="M56.46 82.06v1.02c-1.96 1.47-3.67 1.13-5.12-1.02 1.42-.31 3.13-.31 5.12 0Z"/>
  <path fill="#421228" d="M75.9 77.96c5.12 2.48 10.58 4.36 16.37 5.63-5.18 0-10.34-.7-15.35-2.05-1.92-.98-2.26-2.17-1.02-3.58Z"/>
  <path fill="#16151e" d="M393.12 84.1h3.07v3.07h-3.07V84.1Z"/>
  <path fill="#230e16" d="M103.53 86.15c3.83-.92 5.87.44 6.14 4.09-2.9-.19-4.95-1.55-6.14-4.09Z"/>
  <path fill="#4a1431" d="M104.55 99.45c-3.55-4.85-6.97-9.79-10.23-14.84 2.1-.33 4.15 0 6.14 1.02-.81.31-1.53.84-2.05 1.53 2.51 3.85 4.57 7.97 6.14 12.28Z"/>
  <path fill="#531432" d="M113.76 88.2c1.97.3 3.67 1.15 5.12 2.56-2.83 1.1-4.53.25-5.12-2.56Z"/>
  <path fill="#160f14" d="m61.58 89.22 2.05 3.07c-.28 2.4-1.13 2.4-2.56 0-.76-1.28-.59-2.3.51-3.07Z"/>
  <path fill="#3c1331" d="M124 93.31c.9-.13 1.58.21 2.05 1.02-2.13 5.06-2.81 4.72-2.05-1.02Z"/>
  <path fill="#151318" d="m399.26 103.55-1.02-2.05c.06-.56.4-.9 1.02-1.02 1.31 1.14 1.31 2.16 0 3.07Z"/>
  <path fill="#a21c40" d="M57.48 75.92h-3.07c.09 1.44-.27 2.87-1.02 4.09 1.05.64 2.07 1.32 3.07 2.05-1.99-.31-3.7-.31-5.12 0 1.45 2.16 3.15 2.5 5.12 1.02 1.69 2.01 3.4 4.05 5.12 6.14-1.1.77-1.27 1.79-.51 3.07 1.42 2.4 2.28 2.4 2.56 0 4.66 8.79 9.79 17.33 15.35 25.58 1.77 4.24 4.5 7.65 8.19 10.23-3.9 1.28-3.9 2.31 0 3.07-3.28 2.08-3.62 4.46-1.02 7.16-.68 0-1.02.34-1.02 1.02-.74-.43-1.25-1.11-1.53-2.05-.32 2.87-1.85 4.58-4.6 5.12-1.68-1.8-3.72-3.33-6.14-4.6-1.3-.5-2.71-.67-4.09-.51-.22 1.68.12 3.22 1.02 4.6 2.02.51 4.07.68 6.14.51-1.6 3.09-3.98 3.77-7.16 2.05l-3.07 2.05c-3.05-2.12-5.78-4.68-8.19-7.67-1.24-.8-2.64-1.32-4.09-1.53a44.844 44.844 0 0 1-3.58-9.21c-2.58-2.94-4.46-2.6-5.63 1.02a7.38 7.38 0 0 1-2.56-2.05c-.18 3.95-.69 7.7-1.53 11.26.68-8.87 1.36-17.73 2.05-26.61-.47-8.88-1.15-17.75-2.05-26.61.84 2.53 1.35 5.25 1.53 8.19 1.42-3.86 2.45-3.86 3.07 0 3.76-3.94 5.64-8.71 5.63-14.33 1.46-1.31 2.15-3.02 2.05-5.12 2.1-.1 3.81.58 5.12 2.05Z"/>
  <path fill="#fdfafb" d="M223.26 98.43c1 2.85 1.34 5.92 1.02 9.21.72 1.67 1.92 3.04 3.58 4.09l1.02 4.09c.95-3.28 2.14-3.62 3.58-1.02 1.24 4.2 2.78 8.3 4.6 12.28.51 9.89.68 19.78.51 29.68-.49 6.22-1.52 12.38-3.07 18.42-1.35 10.67-1.35 21.25 0 31.72.13 1.74.47 3.46 1.02 5.12v29.68c3.17.2 6.24.88 9.21 2.05.54 2.82 1.56 5.38 3.07 7.67 4.75 1.84 9.35 1.67 13.81-.51a35.33 35.33 0 0 1 7.67 6.65c2.23 1.23 4.62 1.74 7.16 1.53.17-10.92 0-21.84-.51-32.74a28.7 28.7 0 0 0-1.53-5.12l2.05-47.07c.31-2.1-.04-4.25-1.02-6.14-.84 3.35-1.36 6.78-1.53 10.23-.16-6.5-.68-12.99-1.53-19.44-.89-3.34-1.07-6.82-.51-10.23 1.01 5.45 3.4 10.23 7.16 14.33l1.02 20.47c1.23-6.41 1.92-12.92 2.05-19.44a36.33 36.33 0 0 1 3.58-4.6c.96-.71 1.64-.54 2.05.51.18 2.51-.5 4.73-2.05 6.65 1.05 3.04 2.43 5.95 4.09 8.7-.17 24.9 0 49.8.51 74.7 1.4-6.38 1.92-12.92 1.53-19.44-.29-16.04.05-32.08 1.02-48.09l2.05-8.19c-.17 16.03 0 32.07.51 48.09a103.54 103.54 0 0 0 1.53-22.51c.29-10.58.8-21.16 1.53-31.72.5-3.21 1.69-6.11 3.58-8.7-1.97-3.31-2.48-6.89-1.53-10.74 8.31-7.64 8.14-15.31-.51-23.02-3.98-3.1-8.41-4.12-13.3-3.07a41.559 41.559 0 0 0-10.74 8.7c-.77 5.61-.26 11.07 1.53 16.37-1.72.17-3.46 0-5.12-.51-.61-1.1-.96-2.32-1.02-3.58 1.17-4.02 2.02-8.13 2.56-12.28 3.03-4.35 5.28-9.2 6.65-14.33.83-1.83 1.34-3.88 1.53-6.14l2.56 9.21c.73-2.62 2.1-3.3 4.09-2.05 14.26 3.29 20.4 12.16 18.42 26.61-1.47 2.14-2.16 4.52-2.05 7.16-1.29 9.41-1.29 18.96 0 28.65.17 8.53 0 17.06-.51 25.58-1.1 1.19-1.97 2.58-2.56 4.09-.98 6.77-1.33 13.63-1.02 20.47a837.87 837.87 0 0 0 0 36.84c5.2 3.51 11 5.04 17.4 4.6l2.05 2.05a88.785 88.785 0 0 1 20.47 6.65c1.02-14.3 1.36-28.64 1.02-42.98-.06-.56-.4-.9-1.02-1.02-.66 1.53-1.68 2.55-3.07 3.07-.18-2.41-.52-4.8-1.02-7.16-.48-12.03.2-23.96 2.05-35.81a101.49 101.49 0 0 0-3.07-15.35c.03-5.48 1.74-10.26 5.12-14.33 3.17-4.21 5.04-8.99 5.63-14.33 1.38 2.14 1.9 4.53 1.53 7.16 1.35.17 2.55-.17 3.58-1.02.51-3.74.68-7.49.51-11.26 1.25 3.62 2.44 7.37 3.58 11.26 3.28 2.53 6.9 4.6 10.74 6.14 2.67 2.95 4.55 6.36 5.63 10.23-.06 14.28.12 28.61.51 42.98-.86 9.19-1.37 18.4-1.53 27.63-.51-6.13-.68-12.27-.51-18.42-1.11-4.76-2.13-9.53-3.07-14.33-.74-12.66.28-25.11 3.07-37.35a65.583 65.583 0 0 0-8.19-11.26c-8.85-3.71-15.67-1.49-20.47 6.65-2.02.84-3.05 2.37-3.07 4.6a19.56 19.56 0 0 0 5.12 7.67c-.33 3.45.02 6.92 1.02 10.23.98-1.89 1.34-4.04 1.02-6.14-.3-3.3.38-6.37 2.05-9.21l-6.14-2.05 2.05-4.09c2.14-1.47 4.52-2.16 7.16-2.05v4.09c2.22-.39 3.92.29 5.12 2.05-3.2 1.33-5.59 3.54-7.16 6.65 3.69.03 7.1.88 10.23 2.56l2.05-5.12 2.05 1.02a170.88 170.88 0 0 1 2.05 32.74 44.1 44.1 0 0 1 3.07 15.35c-1.85 10.47-2.53 21.1-2.05 31.72.17 4.1 0 8.21-.51 12.28-2.41 4.1-3.26 8.37-2.56 12.79 7.7.96 15.26 2.85 22.51 5.63 1.55-.21 2.99-.93 4.09-2.05 1.49 1.42 2.86 2.96 4.09 4.6a177.42 177.42 0 0 1 41.95 13.3c2.36.51 4.75.68 7.16.51h2.05c3.23 2.56 6.99 3.92 11.26 4.09-2.75 1.26-5.65 1.26-8.7 0-2.28.89-4.5 1.91-6.65 3.07a660.94 660.94 0 0 0-33.77-11.77c-6.44-1.39-12.93-2.59-19.44-3.58-4.66.34-5.69 2.21-3.07 5.63 18.18 3.81 36.27 8.07 54.23 12.79-.03 1.74-.71 3.1-2.05 4.09-8.72-5.4-18.27-8.13-28.65-8.19.27 1.51-.07 2.88-1.02 4.09-1.8-5.33-5.55-7.55-11.26-6.65-.46.42-.82.95-1.02 1.53 1.28 1.54 2.32 3.26 3.07 5.12l-3.58 1.02a317.06 317.06 0 0 0-29.16-9.21c-.82 12.27-1.5 24.55-2.05 36.84-.96 1.09-1.3 2.46-1.02 4.09l-2.05-13.3c-.63.11-1.14.45-1.53 1.02-.51 8.52-.68 17.05-.51 25.58-1.6 4.26-2.28 8.69-2.05 13.3a241.56 241.56 0 0 0-3.07 24.56c-.98-1.89-1.34-4.04-1.02-6.14.17-10.24 0-20.47-.51-30.7-1.47-8.45-2.33-17-2.56-25.58.9-10.21 1.07-20.47.51-30.7-3.33-3-7.26-3.85-11.77-2.56a25.911 25.911 0 0 0-4.09 4.6 96.737 96.737 0 0 1-19.95-6.14 56.252 56.252 0 0 1-17.91 3.07c-.8 14.31-1.31 28.64-1.53 42.98a33.044 33.044 0 0 0-3.58 6.14c-1.26 2.2-2.29 4.59-3.07 7.16l-2.05-22.51c.13-.9-.21-1.58-1.02-2.05a26.422 26.422 0 0 0-1.02 10.23l-2.05 6.14c-.2-8.77-1.23-17.51-3.07-26.09 1.13-9.68 1.3-19.45.51-29.16a7.16 7.16 0 0 0-3.58-2.56c-3.61-.83-7.02-.66-10.23.51-3.96 1.32-8.1 2.01-12.28 2.05-.17-4.78-2.73-7.51-7.67-8.19-2.86 2.54-6.1 4.08-9.72 4.6 1.88-2.05 3.93-3.93 6.14-5.63 1.38-2.16 1.04-4.04-1.02-5.63-2.7-.51-5.45-.68-8.19-.51-.47 14.01-1.32 28-2.56 41.95-.17-10.07-.69-19.96-1.53-29.68-.01-14.91-.7-14.91-2.05 0-1.02 14.3-1.36 28.64-1.02 42.98-3.34 10.69-4.02 21.6-2.05 32.74-1.88 8.71-2.56 17.58-2.05 26.61v11.26c-.86.35-1.2 1.03-1.02 2.05l-2.05-5.12c.18-1.02-.17-1.7-1.02-2.05v-3.07c.34-12.29 0-24.59-1.02-36.84-.62.13-.96.47-1.02 1.02v12.28l-2.05-9.21v-2.05c.34-11.44 0-22.7-1.02-33.77-.66-1.98-1.01-4.05-1.02-6.14.6-8.04-.25-15.88-2.56-23.54l-1.02-16.37a70.24 70.24 0 0 0-6.65-4.6 72.8 72.8 0 0 1-17.4-6.65c0-.68.34-1.02 1.02-1.02 2.91.57 5.81 1.25 8.7 2.05 2.24.15 3.6-.87 4.09-3.07 3.93 7 5.81 6.32 5.63-2.05-1.68-.22-3.22.12-4.6 1.02-5.67-6.05-12.32-7.75-19.95-5.12-6.16-2.7-12.64-4.06-19.44-4.09a82.606 82.606 0 0 0-2.05 21.49c-.7-7.16-1.38-14.32-2.05-21.49-1.36 13.13-1.36 26.09 0 38.88v6.14c-.79.78-1.3 1.8-1.53 3.07-.51 6.47-.68 12.95-.51 19.44-.67 1.99-1.86 3.7-3.58 5.12-.51 5.44-.68 10.91-.51 16.37-1.53 18.78-3.24 37.54-5.12 56.28l-2.05-10.23c-.04-4.33-.72-8.42-2.05-12.28-.2-14.69-.88-29.36-2.05-44 .11-2.77-.24-5.53-1.02-8.19a426.6 426.6 0 0 0-2.05-48.09c-1.02 6.08-1.36 12.26-1.02 18.42-.86 7.13-1.37 14.31-1.53 21.49-.17-18.77-.68-37.53-1.53-56.28.29-3.35-.05-6.59-1.02-9.72-9.1-2.53-18.32-4.58-27.63-6.14a61.569 61.569 0 0 0-15.35-10.23 244.21 244.21 0 0 0-35.81-11.26 9.77 9.77 0 0 1-2.56-1.53c-1.41-3.79-3.29-7.2-5.63-10.23V209.9c.7-3.6 2.75-6.16 6.14-7.67 9.23-.48 18.44-.14 27.63 1.02 4.61 3.15 9.73 4.86 15.35 5.12l6.14 4.09a74.233 74.233 0 0 0 19.44 2.56c4.44.17 8.89 0 13.3-.51 1.33-3.87 1.33-7.8 0-11.77-.78 1.14-1.81 1.82-3.07 2.05-.82-3-1.16-6.11-1.02-9.21 1.8-9.09 2.49-18.37 2.05-27.63l2.05-1.02c-.07 6.63 2.66 8.85 8.19 6.65 3.89 2.7 7.34 5.98 10.23 9.72-.32 2.44.03 4.91 1.02 7.16.62-.13.96-.47 1.02-1.02-.26-2.35.08-4.56 1.02-6.65 2.32-.09 3.86 1.1 4.6 3.58.17 6.85.68 13.67 1.53 20.47.85-7.13 1.36-14.31 1.53-21.49 3.62-2.07 5.15-5.14 4.6-9.21.93.73 1.27 1.75 1.02 3.07v5.12c-.86 9.19-1.37 18.4-1.53 27.63-1.03 3.44-1.72 6.85-2.05 10.23 9.36 1.98 18.74 3.85 28.14 5.63 4.1 1.58 7.9 3.82 11.26 6.65.93-.1 1.82-.45 2.56-1.02.51-3.05.68-6.12.51-9.21.65-.61.99-1.46 1.02-2.56a43.73 43.73 0 0 1-2.05-15.86c1.73-6.79.87-13.27-2.56-19.44-.51-4.41-.68-8.86-.51-13.3.63-4.68-.39-8.77-3.07-12.28.34-2.79-.34-5.18-2.05-7.16v-18.42c.68 0 1.02-.34 1.02-1.02 2.08-2.1 3.81-4.51 5.12-7.16 1.35-2.03 3.09-3.77 5.12-5.12 2.51 2.48 5.58 3.67 9.21 3.58 2.76 2.71 3.61 5.96 2.56 9.72-5.56 1.26-7.95-1.13-7.16-7.16-1.71-2.73-3.41-2.73-5.12 0-.51 2.7-.68 5.45-.51 8.19-7.32.15-9.87 3.9-7.67 11.26.28-1.87 1.13-3.41 2.56-4.6-.86-1.03-1.2-2.23-1.02-3.58 3.06.06 5.96-.62 8.7-2.05 1.09.03 1.95.37 2.56 1.02-.34 7.52 0 15.05 1.02 22.51 1-2.61 1.35-5.41 1.02-8.19v-1.02l2.05-13.3c.63.11 1.14.45 1.53 1.02 1.19 6.06 1.7 12.24 1.53 18.42l2.56 74.7c1.14-26.25 1.66-52.52 1.53-78.79-.12-6.88.57-13.75 2.05-20.47.67-.31 1.35-.65 2.05-1.02l2.05 7.16c.62-.13.96-.47 1.02-1.02-.06-3.92 1.13-4.6 3.58-2.05 1.22 3.99 1.91 8.11 2.05 12.28a70.647 70.647 0 0 0 1.02-20.47c-.97-1.63-2.16-2.99-3.58-4.09-4.68-4.86-10.48-6.91-17.4-6.14-1.94.56-3.64 1.58-5.12 3.07-.62-.13-.96-.47-1.02-1.02 3.49-2.53 7.07-4.92 10.74-7.16 2.88-4.37 4.41-9.14 4.6-14.33Z"/>
  <path fill="#39132f" d="M104.55 99.45c3.14 3.19 5.53 6.95 7.16 11.26v1.02c-3.42-3.41-5.8-7.51-7.16-12.28Z"/>
  <path fill="#c31f47" d="M207.91 119.92c.06.56.4.9 1.02 1.02 1.47-1.49 3.18-2.51 5.12-3.07l4.09 2.05a2.53 2.53 0 0 0-2.05.51c3.7 4.41 8.13 5.61 13.3 3.58.92 1.03 1.6 1.03 2.05 0 1.42 1.1 2.61 2.46 3.58 4.09a71 71 0 0 1-1.02 20.47c-.14-4.17-.83-8.29-2.05-12.28-2.45-2.55-3.64-1.87-3.58 2.05-.99-2.16-1.33-4.54-1.02-7.16-1.77.15-3.54-.2-5.12-1.02l-1.02.51c.9.72 1.58 1.58 2.05 2.56a88.035 88.035 0 0 0-2.05 20.47c-.83 2.18-1.34 4.57-1.53 7.16l-1.02-4.09c-.39.57-.9.91-1.53 1.02a84.33 84.33 0 0 0-1.53-18.42c-.39-.57-.9-.91-1.53-1.02-.06-.56-.4-.9-1.02-1.02-1.01 4.7-1.36 9.53-1.02 14.33v1.02l-2.05-14.33c-.61-.65-1.46-.99-2.56-1.02a17.764 17.764 0 0 1-8.7 2.05c-.17 1.35.17 2.55 1.02 3.58-1.43 1.2-2.28 2.73-2.56 4.6-2.2-7.36.36-11.11 7.67-11.26-.17-2.74 0-5.49.51-8.19 1.71-2.73 3.41-2.73 5.12 0-.79 6.04 1.6 8.42 7.16 7.16 1.05-3.77.2-7.01-2.56-9.72-3.63.09-6.7-1.11-9.21-3.58a18.353 18.353 0 0 0-5.12 5.12c-1.53.09-2.55-.59-3.07-2.05 1.89-2.37 3.12-5.19 3.58-8.19a7.52 7.52 0 0 1 2.56-2.05c.81 1.62 2.17 3.33 4.09 5.12Z"/>
  <path fill="#31141d" d="M402.33 111.73c2.28 3.41 3.99 7.17 5.12 11.26h-2.05c-1.67-3.14-2.69-6.55-3.07-10.23v-1.02Z"/>
  <path fill="#ba1e46" d="M464.75 100.48c-.16 3.82-1.02 3.82-2.56 0-3.87.23-6.94 1.94-9.21 5.12a439.846 439.846 0 0 1-16.88 44c-1.26.87-2.64 1.56-4.09 2.05-.82-1.96-1.34-4.03-1.53-6.14-1.43 0-2.97-.34-4.6-1.02-1.43.37-2.46 1.23-3.07 2.56 1.72 1.94 2.23 4.16 1.53 6.65-1.37-1.2-2.58-2.57-3.58-4.09-1.25 2.54-3.3 3.56-6.14 3.07-.72-5.27-2.26-10.39-4.6-15.35.38 3.37.38 6.78 0 10.23-1.4-.78-2.59-.26-3.58 1.53l1.02 1.02c-6.02 3.41-12.5 4.43-19.44 3.07-3.28-1.81-6.7-3.35-10.23-4.6-8.12 3.37-15.62 2.35-22.51-3.07-.62.13-.96.47-1.02 1.02-1.02-.18-1.7.17-2.05 1.02-.74-.43-1.25-1.11-1.53-2.05a14.83 14.83 0 0 1-5.63 5.12c-7.02-3.77-14.39-6.86-22-9.21a26.602 26.602 0 0 0-5.63 6.65c-4.08 1.18-7.49 3.4-10.23 6.65-.64-1.05-1.32-2.07-2.05-3.07-.11-2.64.57-5.03 2.05-7.16 4.31-3.03 9.09-5.08 14.33-6.14 7.83 1.43 15.68 2.8 23.54 4.09 4.55-.5 8.98-.5 13.3 0 3.32-.98 6.44-2.54 9.21-4.6a28.56 28.56 0 0 1 9.21-1.53c4.69-.54 8.61.82 11.77 4.09l1.02-1.02 6.14 2.05c3.08-4.44 6.15-8.87 9.21-13.3l1.02 5.12c.76-3.5.59-6.91-.51-10.23h2.05c.24.61.75.95 1.53 1.02 2.33-2.66 5.06-4.71 8.19-6.14 3.13 1.91 4.66 4.64 4.6 8.19 3.05-.62 6.12-1.13 9.21-1.53l7.67-7.67a28.14 28.14 0 0 0 2.56-10.23c2 .52 4.08.69 6.14.51 1.9-5.35 5.14-9.62 9.72-12.79 2.98 1.64 5.54 3.69 7.67 6.14Z"/>
  <path fill="#0c0d0e" d="M87.16 128.1v3.07c-3.9-.76-3.9-1.79 0-3.07Z"/>
  <path fill="#120e10" d="M407.45 129.13c2.02.95 2.36 2.31 1.02 4.09-.95-1.22-1.29-2.58-1.02-4.09Z"/>
  <path fill="#b71e47" d="M53.39 137.31c3.76 3.81 4.78 8.24 3.07 13.3-1.33-.6-2.18-1.63-2.56-3.07-2.09 2.15-4.65 3.35-7.67 3.58.94.38 1.79.89 2.56 1.53.68 3.72.68 7.54 0 11.26a59.782 59.782 0 0 1-7.67 10.74c2.66.8 2.66 1.31 0 1.53-.63-.11-1.14-.45-1.53-1.02-.79-12.27-.62-24.59.51-36.84.84-3.56 1.35-7.31 1.53-11.26a7.52 7.52 0 0 0 2.56 2.05c1.17-3.62 3.05-3.96 5.63-1.02.88 3.26 2.07 6.33 3.58 9.21Z"/>
  <path fill="#f5e2e7" d="M164.93 153.69v1.02c0 .68-.34 1.02-1.02 1.02-1.91-1.48-3.63-3.2-5.12-5.12-5.13-3.76-10.93-5.46-17.4-5.12-4.48.69-7.55 3.08-9.21 7.16-.86-.35-1.2-1.03-1.02-2.05 2.28-3.2 5.35-5.41 9.21-6.65a82.61 82.61 0 0 0 10.74-2.56c.92.25 1.78.59 2.56 1.02 1.9 2.58 3.78 2.58 5.63 0 .18-2.78.7-5.53 1.53-8.19.85 4.73 1.36 9.52 1.53 14.33.37 2 1.23 3.7 2.56 5.12Z"/>
  <path fill="#faf0f3" d="M145.49 147.55c3.24.4 6.38 1.44 9.21 3.07-.45 1.61-1.47 2.8-3.07 3.58-4.71 1.05-9.14.54-13.3-1.53-1.95 1.59-2.8 1.25-2.56-1.02 2.29-3.54 5.53-4.91 9.72-4.09Z"/>
  <path fill="#ae1e41" d="M352.19 147.55c.17 3.76 0 7.53-.51 11.26-1.03.86-2.23 1.2-3.58 1.02.36-2.63-.15-5.02-1.53-7.16-.58 5.34-2.46 10.11-5.63 14.33-1.39-.16-2.79.01-4.09.51a84.89 84.89 0 0 0-5.63 6.65c-5.93.25-10.71 2.98-14.33 8.19-1.17-.98-2.2-.64-3.07 1.02-2.77 4.68-4.13 9.8-4.09 15.35-.89-.62-1.4-1.47-1.53-2.56 1.15-5.3.98-10.58-.51-15.86-.17 9.39-.69 18.6-1.53 27.63.33-9.4 0-18.61-1.02-27.63-1.29-9.69-1.29-19.25 0-28.65.72.99 1.41 2.02 2.05 3.07 2.74-3.26 6.15-5.47 10.23-6.65 1.5-2.51 3.4-4.76 5.63-6.65 7.61 2.35 14.98 5.44 22 9.21a14.83 14.83 0 0 0 5.63-5.12c.28.94.8 1.62 1.53 2.05Z"/>
  <path fill="#b51e43" d="M194.6 153.69c1.7 1.98 2.38 4.37 2.05 7.16.65 4.3 1.67 8.39 3.07 12.28-.17 4.44 0 8.89.51 13.3 3.43 6.18 4.29 12.66 2.56 19.44-.98 1.81-1.33 3.85-1.02 6.14-4.55-.95-9-2.32-13.3-4.09-3.41-.42-6.48-1.78-9.21-4.09-.97.5-1.99.84-3.07 1.02-2.86-1.56-5.98-2.6-9.21-3.07a5.02 5.02 0 0 0-.51-3.07l-1.02 1.02c-.51-5.1-.68-10.23-.51-15.35v-5.12c.71-4.83 2.07-9.6 4.09-14.33a89.382 89.382 0 0 0-4.09-10.23v-1.02c2.41-1.62 4.99-2.99 7.67-4.09 1.37 1.02 2.73 2.04 4.09 3.07 2.97-.49 5.7-1.51 8.19-3.07a9.097 9.097 0 0 1 3.07 4.09c2.64-3.04 4.69-2.7 6.14 1.02.41-.23.58-.58.51-1.02Z"/>
  <path fill="#b01e40" d="M153.67 142.43c-.81-.44-1.67-.79-2.56-1.02a82.61 82.61 0 0 1-10.74 2.56c-3.86 1.24-6.93 3.45-9.21 6.65-2.43 5.43-3.45 11.22-3.07 17.4.44 9.26-.24 18.54-2.05 27.63-.96 1.09-1.3 2.46-1.02 4.09-1.24-1.04-2.61-1.9-4.09-2.56-6.2-.38-12.35-1.23-18.42-2.56-4.93-1.7-9.59-4.11-13.81-7.16-6.73 1.21-12.87-.16-18.42-4.09-.97.53-1.83 1.22-2.56 2.05a25.338 25.338 0 0 0-10.23-5.12c-5.81-.5-11.26-1.87-16.37-4.09 2.66-.23 2.66-.74 0-1.53a59.64 59.64 0 0 0 7.67-10.74c.68-3.72.68-7.54 0-11.26a9.506 9.506 0 0 0-2.56-1.53c3.03-.23 5.59-1.43 7.67-3.58.38 1.44 1.23 2.47 2.56 3.07 1.71-5.06.69-9.5-3.07-13.3 1.46.21 2.82.73 4.09 1.53 2.41 3 5.14 5.55 8.19 7.67l3.07-2.05c3.18 1.72 5.57 1.04 7.16-2.05h3.07c2.75-.54 4.29-2.24 4.6-5.12.28.94.8 1.62 1.53 2.05l4.6 9.21c.67 1.22 1.18 1.22 1.53 0l-3.07-6.14c2.71-.09 5.1.59 7.16 2.05 1.51 1.95 3.56 3.15 6.14 3.58 6.49-.31 11.78 1.9 15.86 6.65.47-.57.65-1.32.51-2.05 2.46 1.46 3.14.95 2.05-1.53 1.66.2 3.37.2 5.12 0 1.46-2.73 2.5-5.66 3.07-8.7 1.08 1.13 1.94 2.49 2.56 4.09.55-2.64-.3-4.69-2.56-6.14-.74-2.5-1.77-4.9-3.07-7.16a62.93 62.93 0 0 1 10.74-5.12c5.24 3.53 10.2 7.47 14.84 11.77l4.09 1.02c-.57.39-.91.9-1.02 1.53Z"/>
  <path fill="#660f2e" d="M95.34 144.48a825.7 825.7 0 0 0 18.42 4.6c1.87.68 3.23 1.87 4.09 3.58.14.72-.05 1.47-.51 2.05-4.08-4.75-9.37-6.97-15.86-6.65-2.58-.43-4.63-1.63-6.14-3.58Z"/>
  <path fill="#50142c" d="m86.14 138.34 2.05 4.09 3.07 6.14c-.35 1.22-.87 1.22-1.53 0l-4.6-9.21c0-.68.34-1.02 1.02-1.02Z"/>
  <path fill="#48152a" d="M78.97 142.43H75.9c-2.06.17-4.13 0-6.14-.51-.9-1.39-1.24-2.92-1.02-4.6 1.39-.16 2.79.01 4.09.51 2.41 1.27 4.46 2.81 6.14 4.6Z"/>
  <path fill="#1f111e" d="M60.55 153.69c1.5-.68 3.2-1.02 5.12-1.02 2.69-.18 5.08.5 7.16 2.05-4.22 1.2-8.31.86-12.28-1.02Z"/>
  <path fill="#260f15" d="M78.97 154.71h4.09v3.07c-2.53.42-3.89-.6-4.09-3.07Z"/>
  <path fill="#bf6482" d="M131.16 150.62c-.18 1.02.17 1.7 1.02 2.05-1.65 4.59-2.33 9.37-2.05 14.33l-2.05 1.02c-.38-6.17.64-11.97 3.07-17.4Z"/>
  <path fill="#b01e42" d="m141.39 145.5 4.09 2.05c-4.19-.81-7.43.55-9.72 4.09-.24 2.28.61 2.62 2.56 1.02 4.16 2.07 8.6 2.58 13.3 1.53 1.6-.78 2.62-1.97 3.07-3.58 1.5 1.21 2.86 1.21 4.09 0 1.48 1.91 3.2 3.63 5.12 5.12a51.59 51.59 0 0 1 3.07 9.21c-.82 3.81-1.84 7.56-3.07 11.26.55 4.07-.99 7.14-4.6 9.21-.17 7.18-.68 14.35-1.53 21.49-.85-6.79-1.36-13.62-1.53-20.47-.75-2.48-2.28-3.67-4.6-3.58-.94 2.09-1.29 4.31-1.02 6.65l-2.05-6.14a46.05 46.05 0 0 0-10.23-9.72c-5.53 2.2-8.26-.02-8.19-6.65-.28-4.96.4-9.73 2.05-14.33 1.66-4.08 4.73-6.47 9.21-7.16Z"/>
  <path fill="#e48994" d="m209.95 138.34 2.05 14.33c.33 2.77-.03 5.58-1.02 8.19-1.02-7.46-1.36-14.99-1.02-22.51Z"/>
  <path fill="#47122f" d="M132.18 157.78c2.41-.17 4.8 0 7.16.51.86 1.03 1.2 2.23 1.02 3.58-3.58-.03-6.3-1.4-8.19-4.09Z"/>
  <path fill="#b21e41" d="M464.75 100.48c1.49-.07 2.86.27 4.09 1.02v16.37c.17 2.06 0 4.13-.51 6.14-.37-3.11-1.05-3.46-2.05-1.02a89.99 89.99 0 0 1-1.53 13.3c-.9 1.29-1.93 2.49-3.07 3.58-1.27.47-2.13-.05-2.56-1.53-.95-2.45-1.47-5.05-1.53-7.67 1.97-3.96 2.65-8.05 2.05-12.28-.68-.68-1.36-.68-2.05 0-2.65 4.48-5.89 8.4-9.72 11.77a20.02 20.02 0 0 0-1.53 6.65c1.66 4.15 2.51 8.41 2.56 12.79l-8.7 10.74c-2.39 2.48-5.12 2.99-8.19 1.53-1.18-2.73-2.38-5.46-3.58-8.19.18 4.61-1.87 7.68-6.14 9.21-.94-1.18-1.79-1.01-2.56.51.47.42.81.94 1.02 1.53-1.39.64-2.75 1.32-4.09 2.05-1.33 2-.82 3.71 1.53 5.12.51 2.02.68 4.07.51 6.14-.32 1.27-.83 1.27-1.53 0-.31 1.27-.82 2.48-1.53 3.58l1.02 1.02c-.75 1.45-1.27 3-1.53 4.6-5.26 4.67-10.72 9.11-16.37 13.3-1.92 1.93-2.77 3.98-2.56 6.14-3.04.63-6.11.29-9.21-1.02-1.27.55-2.47 1.23-3.58 2.05l-2.56-3.07c-1.98 2.07-3.55 4.5-4.6 7.16-.85-4.07-.67-8.29.51-12.28.76.88 1.29 1.93 1.53 3.07l1.02-1.02c.4.95 1.08 1.63 2.05 2.05 3.4-2.03 6.13-4.76 8.19-8.19 4.52-9.22 5.54-18.78 3.07-28.65-1.43-3.89-3.99-4.92-7.67-3.07a75.343 75.343 0 0 1-10.23-5.63c-2.61-.68-5.16-.5-7.67.51-1.25-.37-2.45-.88-3.58-1.53-2.25-2.67-4.81-4.89-7.67-6.65-.8-1.24-1.32-2.64-1.53-4.09.06-.56.4-.9 1.02-1.02 6.89 5.42 14.39 6.44 22.51 3.07 3.53 1.25 6.95 2.79 10.23 4.6 6.94 1.36 13.42.34 19.44-3.07l-1.02-1.02c.99-1.8 2.19-2.31 3.58-1.53.38-3.46.38-6.87 0-10.23 2.35 4.96 3.88 10.08 4.6 15.35 2.84.49 4.89-.53 6.14-3.07 1.01 1.52 2.21 2.9 3.58 4.09.7-2.49.19-4.71-1.53-6.65.61-1.33 1.64-2.18 3.07-2.56 1.64.68 3.17 1.02 4.6 1.02.19 2.11.71 4.18 1.53 6.14 1.46-.48 2.83-1.17 4.09-2.05a437.425 437.425 0 0 0 16.88-44c2.27-3.18 5.34-4.88 9.21-5.12 1.54 3.82 2.39 3.82 2.56 0Z"/>
  <path fill="#bc1f44" d="M282.61 40.1c-3.08-.17-6.17 0-9.21.51 3.44.06 6.51 1.08 9.21 3.07 1.13 1.86.45 2.71-2.05 2.56.17 2.06 0 4.13-.51 6.14a27.29 27.29 0 0 0-6.65 10.74c.12 1.64.65 3.22 1.53 4.6 2.07 1.72 3.8 3.8 5.12 6.14.8 2.36.29 4.41-1.53 6.14 1.05.64 2.07 1.32 3.07 2.05-2.72 6.14-5.45 12.28-8.19 18.42.35 1.22.87 1.22 1.53 0 .74 1.65.57 3.18-.51 4.6 3.11 3.34 5.15 7.26 6.14 11.77a45.91 45.91 0 0 1-6.65 14.33c-.53 4.15-1.39 8.26-2.56 12.28.06 1.26.41 2.48 1.02 3.58 1.66.5 3.39.68 5.12.51-1.79-5.31-2.3-10.76-1.53-16.37 3.07-3.48 6.7-6.42 10.74-8.7 4.89-1.05 9.33-.03 13.3 3.07 8.65 7.71 8.82 15.38.51 23.02-.95 3.85-.44 7.43 1.53 10.74-1.89 2.59-3.08 5.49-3.58 8.7-.73 10.56-1.24 21.14-1.53 31.72-1.02-12.1-1.36-24.38-1.02-36.84.66-1 1.34-2.03 2.05-3.07-4.51-5.5-6.21-11.64-5.12-18.42-.71 4.65-1.39 9.26-2.05 13.81-3.73-.94-7.49-1.79-11.26-2.56-1.53-.05-2.56.63-3.07 2.05.79 1.81 2.15 2.84 4.09 3.07 5.1-2.19 8.85-.83 11.26 4.09-1.02-.09-1.87.25-2.56 1.02-.24-1.27-.75-2.29-1.53-3.07-.41-1.05-1.09-1.22-2.05-.51a37.814 37.814 0 0 0-3.58 4.6c-.13 6.53-.81 13.03-2.05 19.44l-1.02-20.47c-3.76-4.1-6.15-8.87-7.16-14.33-.56 3.41-.38 6.9.51 10.23v20.47c-.82 2.23-2.35 3.94-4.6 5.12-3.34-4.24-6.41-8.68-9.21-13.3-2.19 5.75-4.23 11.55-6.14 17.4-2.98 1.94-6.23 2.45-9.72 1.53 3.55-3.47 4.06-7.39 1.53-11.77-1.36-1.36-2.73-1.36-4.09 0-.67-2.45-1.53-4.84-2.56-7.16v-14.33c.17-9.9 0-19.79-.51-29.68a92.52 92.52 0 0 1-4.6-12.28c.23-2.66.74-2.66 1.53 0 .49-.94.67-2.02.51-3.07 2.1-.19 4.22.16 6.14 1.02 1.04-.51 1.22-1.2.51-2.05-1.46-.99-3-1.84-4.6-2.56l10.23-1.02 1.53-1.53c.8-5.29.63-10.74-.51-16.37-.46-2.79.56-4.66 3.07-5.63-5.17-3.19-10.45-3.36-15.86-.51-4.81-3.97-10.27-6.7-16.37-8.19-3.01.67-5.93 1.7-8.7 3.07a85.385 85.385 0 0 1-4.09 10.74c1.64 1.86 3.68 3.05 6.14 3.58 1.65 2.17 2.16 4.56 1.53 7.16-4.39 1.5-8.83 2.86-13.3 4.09-1.48-.73-2.33-1.92-2.56-3.58 1.17-2.67 2.2-5.4 3.07-8.19-4.68-4.97-5.7-10.08-3.07-15.35 1.62-.88 3.34-1.57 5.12-2.05l-1.02-1.02c.8-2.49 1.31-5.07 1.53-7.67.77-.64 1.63-1.16 2.56-1.53-2.19-1.86-4.84-3.1-7.67-3.58a32.59 32.59 0 0 0-8.7 3.58c-6.14.68-12.28.68-18.42 0-2.9-1-4.6-3.05-5.12-6.14 1.16-1.04.82-1.72-1.02-2.05-4.07-.85-8.29-.67-12.28.51-.75 2.68-1.26 5.42-1.53 8.19-2.02 1.07-2.53 2.43-1.53 4.09-.6 1.33-1.63 2.18-3.07 2.56 1.99 1 3.88 2.2 5.63 3.58-.16 4.13-.67 8.24-1.53 12.28 0 2.25.35 4.29 1.02 6.14.24.61.75.95 1.53 1.02 1.3-.47 2.51-1.16 3.58-2.05a21.87 21.87 0 0 1 4.09-3.07c-.45-1.27-1.13-2.29-2.05-3.07-.61-2.69-.95-5.43-1.02-8.19 4.44-.91 8.87-2.27 13.3-4.09 4.18.26 7.08 2.3 8.7 6.14.93 2.88 1.78 5.78 2.56 8.7-.47 1.3-1.16 2.51-2.05 3.58-4.69 2.65-10.14 4.52-16.37 5.63-3.45 3.21-3.79 6.62-1.02 10.23 4.92.8 9.69.29 14.33-1.53a9.27 9.27 0 0 0 5.12 1.02c-.24-1.32.1-2.34 1.02-3.07l2.05 2.05c2.66 9.69 5.73 19.24 9.21 28.65v18.42c.07.45-.1.79-.51 1.02-1.45-3.72-3.5-4.06-6.14-1.02a9.097 9.097 0 0 0-3.07-4.09c-2.49 1.56-5.22 2.58-8.19 3.07-1.36-1.03-2.72-2.05-4.09-3.07a43.4 43.4 0 0 0-7.67 4.09c-1.33-1.41-2.18-3.12-2.56-5.12-.18-4.81-.69-9.59-1.53-14.33a34.62 34.62 0 0 0-1.53 8.19c-1.85 2.58-3.73 2.58-5.63 0 .11-.63.45-1.14 1.02-1.53l-4.09-1.02c-4.64-4.3-9.6-8.23-14.84-11.77a61.838 61.838 0 0 0-10.74 5.12c-2.23-3.74-4.45-7.5-6.65-11.26-.67-1.22-1.18-1.22-1.53 0 3.21 6.46 6.97 12.62 11.26 18.42v2.05c-.57 3.04-1.61 5.97-3.07 8.7-1.7.2-3.42.2-5.12 0 1.09 2.48.41 3-2.05 1.53-.86-1.71-2.23-2.91-4.09-3.58-6.16-1.47-12.3-3-18.42-4.6-2.06-1.46-4.45-2.14-7.16-2.05l-2.05-4.09c-2.6-2.7-2.25-5.09 1.02-7.16v-3.07c-3.69-2.58-6.42-5.99-8.19-10.23 9.47-.61 12.54 3.31 9.21 11.77.46 1.31 1.15 2.52 2.05 3.58-.21.59-.56 1.12-1.02 1.53 3.44 6.67 8.56 8.37 15.35 5.12 2.37-1.13 3.9-3.01 4.6-5.63 1.64-6.33 1.82-12.64.51-18.93 1.51-.73 2.19-1.92 2.05-3.58v-1.02c.88 1 1.73 2.03 2.56 3.07.14-1.98-.37-3.85-1.53-5.63 3.43-1.84 6.84-3.72 10.23-5.63 1.83.67 3.53 1.18 5.12 1.53-1.82-2.3-2.34-4.85-1.53-7.67l1.02 4.09 1.02-2.05c4.75.63 9.02-.73 12.79-4.09a56.818 56.818 0 0 0-8.19-6.65c2.62-2.35 4.49-5.25 5.63-8.7 1.03-.86 2.23-1.2 3.58-1.02.05-2.86-1.31-4.73-4.09-5.63 5.3-1.56 5.3-3.09 0-4.6a76.74 76.74 0 0 1 6.14-3.58c-.46-.42-.82-.95-1.02-1.53 3.23-4.21 4.94-8.99 5.12-14.33-3.96.49-7.37-.54-10.23-3.07-1.27-.32-1.27-.83 0-1.53l17.4-1.02c-10.41-.1-20.65-.27-30.7-.51a432.94 432.94 0 0 1 49.12-1.53c2.14 1.42 4.6 2.3 7.16 2.56 29.07-2.91 58.29-3.93 87.49-3.07 3.3-.46 6.37-1.48 9.21-3.07 2.23.02 3.77 1.05 4.6 3.07Z"/>
  <path fill="#efdfe8" d="M295.91 162.9c-1 3.54-1.35 7.29-1.02 11.26l-2.05 8.19c-.28-5.99.07-11.99 1.02-17.91-.14-1.33-.82-2.18-2.05-2.56-2.41-4.92-6.16-6.28-11.26-4.09-1.94-.23-3.31-1.26-4.09-3.07.51-1.41 1.53-2.09 3.07-2.05 3.77.77 7.52 1.62 11.26 2.56.66-4.56 1.34-9.16 2.05-13.81-1.1 6.78.61 12.92 5.12 18.42-.69 1.02-1.37 2.04-2.05 3.07Z"/>
  <path fill="#ca202c" d="M141.39 145.5c6.47-.35 12.26 1.36 17.4 5.12-1.23 1.21-2.6 1.21-4.09 0a24.474 24.474 0 0 0-9.21-3.07l-4.09-2.05Z"/>
  <path fill="#f2b6c2" d="m214.05 138.34-2.05 13.3c-.34-4.8 0-9.62 1.02-14.33.62.13.96.47 1.02 1.02Z"/>
  <path fill="#351325" d="M128.09 140.38c2.26 1.45 3.11 3.5 2.56 6.14-.62-1.6-1.48-2.97-2.56-4.09v-2.05Z"/>
  <path fill="#220f1a" d="M263.16 141.41c3.75-.15 4.77 1.38 3.07 4.6-.97.63-1.82.46-2.56-.51-.5-1.3-.67-2.71-.51-4.09Z"/>
  <path fill="#d28ba4" d="M228.37 138.34c-.06.56-.4.9-1.02 1.02l-2.05-7.16c-.7.37-1.38.71-2.05 1.02-.46-.98-1.15-1.83-2.05-2.56l1.02-.51a9.27 9.27 0 0 0 5.12 1.02c-.31 2.62.03 5.01 1.02 7.16Z"/>
  <path fill="#46112b" d="M125.02 133.22c1.3 2.26 2.33 4.66 3.07 7.16-4.28-5.8-8.05-11.96-11.26-18.42.35-1.22.87-1.22 1.53 0 2.26 3.85 4.47 7.6 6.65 11.26Z"/>
  <path fill="#2c162d" d="M179.25 127.08c1.88.14 2.22.82 1.02 2.05-.82-.47-1.16-1.15-1.02-2.05Z"/>
  <path fill="#fdecef" d="M286.7 125.03c4.86-.24 9.3.96 13.3 3.58-5.81.61-11.61 1.29-17.4 2.05-.97-.73-1.14-1.59-.51-2.56 1.63-.88 3.17-1.91 4.6-3.07Z"/>
  <path fill="#1f1020" d="M185.39 106.62c1.32.57 2.17 1.59 2.56 3.07 2.87 8.09 5.43 16.28 7.67 24.56 0 .68-.34 1.02-1.02 1.02-3.48-9.42-6.55-18.97-9.21-28.65Z"/>
  <path fill="#fef5f8" d="M218.14 119.92c4.23.16 7.98 1.52 11.26 4.09-5.17 2.03-9.6.83-13.3-3.58.57-.47 1.32-.65 2.05-.51Z"/>
  <path fill="#e02a30" d="M214.05 117.87c6.92-.77 12.71 1.28 17.4 6.14-.45 1.03-1.13 1.03-2.05 0-3.27-2.57-7.02-3.93-11.26-4.09l-4.09-2.05Z"/>
  <path fill="#481331" d="M130.14 116.85c2.84.34 3.52 1.71 2.05 4.09-1.65-.84-2.33-2.2-2.05-4.09Z"/>
  <path fill="#110b12" d="M156.74 92.29c-1.07.88-2.28 1.57-3.58 2.05-.78-.07-1.29-.41-1.53-1.02-.19-11.85 1.51-12.19 5.12-1.02Z"/>
  <path fill="#b21e41" d="M232.46 114.8c-1.44-2.6-2.63-2.26-3.58 1.02l-1.02-4.09c-1.66-1.06-2.86-2.42-3.58-4.09 1.34-3.94 1.34-8.03 0-12.28-.91.84-1.25 1.87-1.02 3.07-.19 5.18-1.73 9.96-4.6 14.33-3.68 2.24-7.26 4.63-10.74 7.16-1.92-1.79-3.29-3.5-4.09-5.12a7.38 7.38 0 0 0-2.56 2.05c-.46 2.99-1.7 5.82-3.58 8.19.52 1.45 1.54 2.13 3.07 2.05a27.305 27.305 0 0 1-5.12 7.16c-2.25-8.28-4.81-16.47-7.67-24.56-.39-1.48-1.24-2.5-2.56-3.07.15-1.77-.2-3.54-1.02-5.12-.68-1.36-1.36-1.36-2.05 0 .63.9.99 1.97 1.02 3.07-.93.73-1.27 1.75-1.02 3.07-1.77.15-3.54-.2-5.12-1.02-4.63 1.82-9.41 2.33-14.33 1.53-2.76-3.62-2.42-7.03 1.02-10.23 6.23-1.1 11.69-2.98 16.37-5.63.88-1.07 1.57-2.28 2.05-3.58-.77-2.92-1.63-5.82-2.56-8.7-1.62-3.84-4.52-5.88-8.7-6.14-4.43 1.82-8.86 3.18-13.3 4.09-1-.65-2.03-1.34-3.07-2.05-1.29 3.3-.78 6.37 1.53 9.21.69.77 1.54 1.11 2.56 1.02.91.78 1.59 1.8 2.05 3.07a21.87 21.87 0 0 0-4.09 3.07c-3.61-11.17-5.31-10.83-5.12 1.02-.68-1.84-1.02-3.89-1.02-6.14a71.46 71.46 0 0 0 1.53-12.28 33.098 33.098 0 0 0-5.63-3.58c1.44-.38 2.47-1.23 3.07-2.56-1-1.66-.49-3.03 1.53-4.09.28-2.79.79-5.52 1.53-8.19 3.99-1.18 8.21-1.36 12.28-.51 1.84.32 2.18 1.01 1.02 2.05.51 3.09 2.22 5.14 5.12 6.14 6.14.68 12.28.68 18.42 0 2.71-1.61 5.64-2.82 8.7-3.58 2.83.48 5.49 1.72 7.67 3.58-.93.38-1.79.89-2.56 1.53-.22 2.61-.74 5.18-1.53 7.67l1.02 1.02c-1.78.48-3.5 1.17-5.12 2.05-2.63 5.27-1.61 10.38 3.07 15.35-.87 2.78-1.9 5.52-3.07 8.19.23 1.66 1.08 2.85 2.56 3.58 4.47-1.23 8.91-2.59 13.3-4.09.63-2.6.12-4.99-1.53-7.16-2.46-.53-4.5-1.72-6.14-3.58 1.6-3.49 2.97-7.08 4.09-10.74 2.77-1.36 5.69-2.4 8.7-3.07 6.1 1.49 11.56 4.22 16.37 8.19 5.41-2.85 10.69-2.68 15.86.51-2.51.96-3.53 2.84-3.07 5.63 1.14 5.63 1.31 11.09.51 16.37l-1.53 1.53-10.23 1.02c1.61.72 3.15 1.57 4.6 2.56.7.85.53 1.53-.51 2.05-1.92-.86-4.04-1.22-6.14-1.02a5.02 5.02 0 0 1-.51 3.07c-.8-2.66-1.31-2.66-1.53 0Z"/>
  <path fill="#180e18" d="m185.39 106.62-2.05-2.05c-.04-1.1-.39-2.17-1.02-3.07.68-1.36 1.36-1.36 2.05 0a9.27 9.27 0 0 1 1.02 5.12Z"/>
  <path fill="#c98ea7" d="M224.28 107.64c.32-3.29-.02-6.36-1.02-9.21-.22-1.2.12-2.23 1.02-3.07 1.34 4.25 1.34 8.34 0 12.28Z"/>
  <path fill="#511524" d="M180.28 92.29c2.84.34 3.52 1.71 2.05 4.09-1.65-.84-2.33-2.2-2.05-4.09Z"/>
  <path fill="#1d0f1a" d="M157.77 77.96c.07 2.76.42 5.5 1.02 8.19-1.02.09-1.87-.25-2.56-1.02-2.31-2.84-2.82-5.91-1.53-9.21 1.04.71 2.06 1.39 3.07 2.05Z"/>
  <path fill="#1d0e15" d="M150.6 67.73c1.88.14 2.22.82 1.02 2.05-.82-.47-1.16-1.15-1.02-2.05Z"/>
  <path fill="#2a111b" d="M99.44 158.8c1.83-.29 3.54.05 5.12 1.02l-2.56 1.02c-1.41-.19-2.26-.87-2.56-2.05Z"/>
  <path fill="#291221" d="M110.69 159.83h3.07v3.07c-3.06.36-4.09-.66-3.07-3.07Z"/>
  <path fill="#381235" d="M144.46 160.85c1.51-.27 2.88.07 4.09 1.02-.84 1.65-2.2 2.33-4.09 2.05v-3.07Z"/>
  <path fill="#2d122c" d="M154.7 163.92c1.51-.27 2.88.07 4.09 1.02l-2.05 1.02c-1.24-.25-1.92-.94-2.05-2.05Z"/>
  <path fill="#b37795" d="M164.93 154.71c1.57 3.32 2.94 6.74 4.09 10.23-2.02 4.72-3.39 9.5-4.09 14.33.24-1.32-.1-2.34-1.02-3.07 1.23-3.69 2.25-7.45 3.07-11.26a51.59 51.59 0 0 0-3.07-9.21c.68 0 1.02-.34 1.02-1.02Z"/>
  <path fill="#a5233d" d="m367.54 213.04-2.05 1.02c.37-10.99-.31-21.91-2.05-32.74l-2.05-1.02-2.05 5.12c-3.13-1.68-6.54-2.53-10.23-2.56 1.57-3.11 3.96-5.32 7.16-6.65-1.2-1.76-2.9-2.44-5.12-2.05v-4.09c-2.64-.11-5.03.57-7.16 2.05-.35-.86-1.03-1.2-2.05-1.02 4.8-8.14 11.62-10.36 20.47-6.65 3.12 3.45 5.87 7.22 8.19 11.26-2.79 12.24-3.81 24.69-3.07 37.35Z"/>
  <path fill="#f6e7ec" d="M350.14 164.94c2.1-.31 4.25.04 6.14 1.02-2.21 2.49-4.59 2.67-7.16.51.57-.39.91-.9 1.02-1.53Z"/>
  <path fill="#c64766" d="M221.21 153.69c.12 26.28-.39 52.54-1.53 78.79l-2.56-74.7c.63-.11 1.14-.45 1.53-1.02l1.02 4.09c.19-2.6.7-4.98 1.53-7.16Z"/>
  <path fill="#e295a9" d="M237.58 156.76v20.47c-.83 2.18-1.34 4.57-1.53 7.16-.19-3.27-.7-6.34-1.53-9.21 1.55-6.04 2.58-12.2 3.07-18.42Z"/>
  <path fill="#b01e43" d="M237.58 171.08c1.03 2.32 1.88 4.71 2.56 7.16 1.36-1.36 2.73-1.36 4.09 0 2.53 4.38 2.01 8.3-1.53 11.77 3.5.91 6.74.4 9.72-1.53 1.91-5.85 3.95-11.65 6.14-17.4 2.8 4.62 5.87 9.06 9.21 13.3 2.25-1.18 3.79-2.88 4.6-5.12.78 2.29 1.64 4.68 2.56 7.16.18-4.29.69-8.38 1.53-12.28l-2.05 47.07c-.96 1.09-1.3 2.46-1.02 4.09-10.64-.48-21.3.38-31.72 2.56-1.42 1.04-2.97 1.9-4.6 2.56-.16-6.16-.67-12.31-1.53-18.42a21.33 21.33 0 0 1-1.02-5.12c-.17-5.12 0-10.25.51-15.35 2.02-4.55 2.87-9.33 2.56-14.33v-6.14Z"/>
  <path fill="#f9f3f6" d="M358.33 171.08c5.11-.7 8.18 1.34 9.21 6.14-5.7 1.53-8.77-.52-9.21-6.14Z"/>
  <path fill="#f7e6eb" d="M150.6 170.06c.72-.14 1.47.05 2.05.51a23.15 23.15 0 0 1-4.6 6.65c-3.12-1.07-5.68-2.95-7.67-5.63 1.8.35 3.67.86 5.63 1.53 2.23-.02 3.77-1.05 4.6-3.07Z"/>
  <path fill="#b85377" d="M196.65 160.85c2.67 3.51 3.7 7.6 3.07 12.28-1.4-3.89-2.42-7.98-3.07-12.28Z"/>
  <path fill="#610b26" d="M57.48 171.08c3.43.29 6.5 1.48 9.21 3.58-2.98-.3-6.05-.47-9.21-.51v-3.07Z"/>
  <path fill="#fae7eb" d="M157.77 174.15c1.2-.22 2.23.12 3.07 1.02-1.73 3.82-4.46 4.84-8.19 3.07 1.51-1.59 3.23-2.97 5.12-4.09Z"/>
  <path fill="#a41c3e" d="M340.93 166.99c-3.38 4.07-5.08 8.84-5.12 14.33a101.49 101.49 0 0 1 3.07 15.35 184.997 184.997 0 0 0-2.05 35.81c-.98 1.81-1.33 3.85-1.02 6.14-4.1.33-7.17 2.38-9.21 6.14a16.252 16.252 0 0 0-4.09-2.56c-4.35-.2-8.62-.72-12.79-1.53a25.212 25.212 0 0 1-5.63 3.07c1.92-9.04 2.61-18.25 2.05-27.63v-8.19c.85-9.03 1.36-18.24 1.53-27.63 1.49 5.28 1.66 10.56.51 15.86.13 1.08.64 1.94 1.53 2.56-.04-5.55 1.33-10.67 4.09-15.35.87-1.66 1.9-2 3.07-1.02 3.62-5.21 8.4-7.94 14.33-8.19 1.76-2.31 3.64-4.54 5.63-6.65 1.3-.5 2.71-.67 4.09-.51Z"/>
  <path fill="#9f1c29" d="M341.96 171.08c1.02-.18 1.7.17 2.05 1.02l-2.05 4.09 6.14 2.05c-1.67 2.84-2.35 5.91-2.05 9.21l-2.05-4.09a19.815 19.815 0 0 1-5.12-7.67c.02-2.23 1.05-3.77 3.07-4.6Z"/>
  <path fill="#c44f6e" d="M272.37 158.8c.86 6.45 1.37 12.94 1.53 19.44.18-3.45.69-6.88 1.53-10.23.98 1.89 1.34 4.04 1.02 6.14-.84 3.9-1.35 7.99-1.53 12.28-.89-2.38-1.74-4.76-2.56-7.16V158.8Z"/>
  <path fill="#b32c55" d="M287.72 159.83c.79.78 1.3 1.8 1.53 3.07.69-.77 1.54-1.11 2.56-1.02 1.22.37 1.9 1.23 2.05 2.56-.96 5.92-1.3 11.92-1.02 17.91-.98 16.01-1.32 32.06-1.02 48.09l-2.05-55.26a45.136 45.136 0 0 1-4.09-8.7c1.55-1.92 2.23-4.14 2.05-6.65Z"/>
  <path fill="#ca6184" d="M234.51 175.18c.84 2.87 1.35 5.94 1.53 9.21.19-2.6.7-4.98 1.53-7.16.31 5-.54 9.77-2.56 14.33-.51 5.1-.68 10.23-.51 15.35-1.35-10.47-1.35-21.05 0-31.72Z"/>
  <path fill="#f7a6b1" d="m148.56 183.36 2.05 6.14c-.06.56-.4.9-1.02 1.02-.99-2.25-1.34-4.73-1.02-7.16Z"/>
  <path fill="#ae1e3e" d="M52.37 184.39a822.078 822.078 0 0 0 55.26 14.33c4.04 1.51 8.14 2.88 12.28 4.09.67 3.4 2.38 6.13 5.12 8.19.45-2.09-.24-4.14-2.05-6.14.84-.91 1.87-1.25 3.07-1.02-.24 1.32.1 2.34 1.02 3.07-.26 2.35.08 4.56 1.02 6.65-3.95.18-7.7.69-11.26 1.53-6.57.02-13.1-.84-19.44-2.56l-6.14-4.09c-5.62-.26-10.74-1.96-15.35-5.12-9.16-1.16-18.41-1.5-27.63-1.02-3.39 1.51-5.44 4.07-6.14 7.67.3-9.78-.39-19.67-2.05-29.68 4.48.36 8.57 1.72 12.28 4.09Z"/>
  <path fill="#1b0d10" d="M57.48 180.29c3.82.93 7.23 2.63 10.23 5.12.73-.83 1.59-1.52 2.56-2.05 5.55 3.94 11.69 5.3 18.42 4.09 4.23 3.05 8.88 5.47 13.81 7.16 2.15 1.47 4.53 2.66 7.16 3.58-.57.47-1.32.65-2.05.51a816.105 816.105 0 0 1-55.26-14.33c1.39.16 2.79-.01 4.09-.51-.46-.42-.82-.95-1.02-1.53.71-.65 1.4-1.33 2.05-2.05Z"/>
  <path fill="#9e1b3f" d="M468.84 182.34c.82 1.49 1.33 3.19 1.53 5.12.4 18.78 1.25 37.54 2.56 56.28-.14 2.41-.48 4.81-1.02 7.16-.85 5.27-1.36 10.73-1.53 16.37l-1.02-8.19-1.02 2.05c-.63-3.15-2.17-5.71-4.6-7.67a38.735 38.735 0 0 1-4.6-11.77c-2.14-.79-4.38-1.3-6.65-1.53-2.97-4.51-6.72-8.09-11.26-10.74v-4.09c1.51.27 2.88-.07 4.09-1.02 2.4-2.9 4.11-6.14 5.12-9.72-1.31-3.83-3.7-6.73-7.16-8.7-.65-2.4-1.33-4.79-2.05-7.16.17-4.1 0-8.21-.51-12.28-1.65-1.33-3.19-1.33-4.6 0-.72 2.9-.89 5.97-.51 9.21-.87 1.66-1.9 2-3.07 1.02a9.383 9.383 0 0 1-4.6 2.05c1-1.52 2.21-2.9 3.58-4.09-1.53-5.31 0-9.57 4.6-12.79-1.84-.32-2.18-1.01-1.02-2.05a5.02 5.02 0 0 0-3.07-.51c-.27-1.51.07-2.88 1.02-4.09 2.2 1.29 4.42 1.29 6.65 0 .97.41 1.65 1.1 2.05 2.05 3.01-6.15 6.42-6.49 10.23-1.02.1 4.6 1.14 9.13 3.07 13.3 3.71 2.35 6.86 5.5 9.21 9.21l1.53-1.53a27.304 27.304 0 0 1-3.07-6.65c1.17-.43 2.36-.77 3.58-1.02l1.02-7.16c.84 5.42 1.35 5.42 1.53 0Z"/>
  <path fill="#d7767a" d="m344 183.36 2.05 4.09c.31 2.1-.04 4.25-1.02 6.14a26.422 26.422 0 0 1-1.02-10.23Z"/>
  <path fill="#ab1e39" d="m144.46 235.55-2.05-31.72c-.02-6.36-.71-12.5-2.05-18.42-.06-.56-.4-.9-1.02-1.02-.64 1.39-1.32 2.75-2.05 4.09-1.68-4.32-1.33-8.41 1.02-12.28 1.3 3.03 3.17 5.76 5.63 8.19.51 17.05.68 34.11.51 51.16Z"/>
  <path fill="#b23048" d="M351.17 189.5c2.06-.17 4.13 0 6.14.51.53.57.89 1.28 1.02 2.05-.68 2.52-1.19 5.09-1.53 7.67-.29-2.44-1.31-3.12-3.07-2.05-1.36 96.87-2.73 96.87-4.09 0-.97-.78-1.48-1.8-1.53-3.07.59-1.93 1.64-3.69 3.07-5.12Z"/>
  <path fill="#be5674" d="M295.91 162.9c-.34 12.46 0 24.74 1.02 36.84.31 7.54-.21 15.09-1.53 22.51-.51-16.03-.68-32.06-.51-48.09-.32-3.96.02-7.71 1.02-11.26Z"/>
  <path fill="#f0efef" d="M28.83 198.71c4.68-.43 6.21 1.62 4.6 6.14-3.67 4.25-6.91 3.9-9.72-1.02 1.41-2.1 3.12-3.8 5.12-5.12Z"/>
  <path fill="#2a1725" d="M102.51 194.62c6.06 1.33 12.22 2.18 18.42 2.56 1.48.65 2.86 1.51 4.09 2.56v3.07h-5.12c-4.14-1.22-8.24-2.58-12.28-4.09.72.14 1.47-.05 2.05-.51-2.63-.92-5.02-2.11-7.16-3.58Z"/>
  <path fill="#a51d3f" d="M424.84 199.73c1.37 5.39 2.39 10.86 3.07 16.37-.18 1.02.17 1.7 1.02 2.05 0 .68.34 1.02 1.02 1.02-1.05.59-2.08.93-3.07 1.02 1.62 9.46 2.14 19.07 1.53 28.65-4.89 5.6-4.71 10.21.51 13.81-7.17 9.77-15.7 11.48-25.58 5.12l-8.19-8.19c-1.35-.2-2.71-.03-4.09.51v-2.05c-1.89-1.37-4.11-2.05-6.65-2.05-4.13.43-8.23 1.11-12.28 2.05l-1.02-1.02a21.152 21.152 0 0 1-3.58 4.09h-1.02c-.48-10.71.2-21.28 2.05-31.72l2.05-2.05c-.17 6.15 0 12.29.51 18.42.17-9.39.69-18.6 1.53-27.63-.17 9.22 0 18.43.51 27.63 2.86-1.47 5.93-2.16 9.21-2.05 6.92 1.24 13.95 1.76 20.98 1.53a1054.32 1054.32 0 0 1 18.42-34.28c-1.22-2.3-2.25-4.69-3.07-7.16 2.47-.88 4.51-2.25 6.14-4.09Z"/>
  <path fill="#efefef" d="M16.55 200.76c3.41 0 5.12 1.71 5.12 5.12-4.35.43-6.06-1.28-5.12-5.12Z"/>
  <path fill="#bc8192" d="M140.37 185.41c-.86 6.11-1.37 12.26-1.53 18.42-.24-1.27-.75-2.29-1.53-3.07v-12.28a78.02 78.02 0 0 0 2.05-4.09c.62.13.96.47 1.02 1.02Z"/>
  <path fill="#f7e4e8" d="M81.02 201.78c2.01.46 2.35 1.48 1.02 3.07-.91-.84-1.25-1.87-1.02-3.07Z"/>
  <path fill="#aa1d3f" d="M468.84 117.87c.43 21.49.43 42.98 0 64.47-.19 5.42-.7 5.42-1.53 0l-1.02 7.16c-1.16.23-2.36.57-3.58 1.02.72 2.34 1.75 4.58 3.07 6.65l-1.53 1.53c-2.35-3.71-5.5-6.86-9.21-9.21a33.43 33.43 0 0 1-3.07-13.3c-3.81-5.47-7.22-5.12-10.23 1.02-.4-.95-1.08-1.63-2.05-2.05-2.24 1.29-4.45 1.29-6.65 0-.95 1.22-1.29 2.58-1.02 4.09a5.02 5.02 0 0 1 3.07.51c-1.16 1.04-.82 1.72 1.02 2.05-4.6 3.22-6.14 7.48-4.6 12.79a19.958 19.958 0 0 0-3.58 4.09c-1.1.05-2.16.4-3.07 1.02-1.63 1.85-3.67 3.21-6.14 4.09.82 2.47 1.85 4.86 3.07 7.16a1054.32 1054.32 0 0 0-18.42 34.28c-7.03.22-14.06-.29-20.98-1.53-3.28-.11-6.35.57-9.21 2.05-.51-9.2-.68-18.41-.51-27.63-.4-14.32-.57-28.65-.51-42.98-1.08-3.87-2.96-7.28-5.63-10.23a44.872 44.872 0 0 1-10.74-6.14c-1.11-3.78-2.3-7.53-3.58-11.26.35-.86 1.03-1.2 2.05-1.02.21 1.46.74 2.85 1.53 4.09 2.87 1.76 5.43 3.98 7.67 6.65 1.13.65 2.33 1.17 3.58 1.53 2.51-1.02 5.07-1.19 7.67-.51 3.26 2.14 6.68 4.02 10.23 5.63 3.69-1.85 6.25-.82 7.67 3.07 2.47 9.88 1.45 19.43-3.07 28.65-2.06 3.42-4.79 6.15-8.19 8.19-.97-.41-1.65-1.1-2.05-2.05l-1.02 1.02a7.066 7.066 0 0 0-1.53-3.07 25.166 25.166 0 0 0-.51 12.28c1.06-2.66 2.62-5.09 4.6-7.16l2.56 3.07c1.11-.81 2.32-1.5 3.58-2.05 3.1 1.31 6.17 1.65 9.21 1.02-.21-2.16.64-4.21 2.56-6.14 5.65-4.19 11.11-8.63 16.37-13.3.27-1.61.79-3.16 1.53-4.6l-1.02-1.02c.71-1.1 1.23-2.31 1.53-3.58.71 1.27 1.22 1.27 1.53 0 1.6 2.36 2.46 5.09 2.56 8.19 1.37 1.43 2.23 1.09 2.56-1.02-1.73-5.75-3.27-11.55-4.6-17.4-.69-.77-1.54-1.11-2.56-1.02a78.02 78.02 0 0 1 4.09-2.05c-.21-.59-.56-1.12-1.02-1.53.77-1.52 1.62-1.69 2.56-.51 4.27-1.53 6.32-4.6 6.14-9.21 1.19 2.7 2.39 5.43 3.58 8.19 3.06 1.45 5.79.94 8.19-1.53l8.7-10.74c-.04-4.38-.9-8.64-2.56-12.79.13-2.29.65-4.54 1.53-6.65 3.83-3.37 7.07-7.29 9.72-11.77.68-.68 1.36-.68 2.05 0 .6 4.23-.08 8.32-2.05 12.28.06 2.63.58 5.23 1.53 7.67.43 1.49 1.29 2 2.56 1.53 1.14-1.09 2.17-2.29 3.07-3.58a87.53 87.53 0 0 0 1.53-13.3c1-2.43 1.68-2.09 2.05 1.02.51-2.02.68-4.07.51-6.14Z"/>
  <path fill="#1d0e11" d="M416.66 166.99c1.02-.09 1.87.25 2.56 1.02 1.34 5.85 2.87 11.65 4.6 17.4-.33 2.12-1.18 2.46-2.56 1.02-.1-3.09-.95-5.82-2.56-8.19.17-2.06 0-4.13-.51-6.14-2.35-1.41-2.87-3.11-1.53-5.12Z"/>
  <path fill="#140a0d" d="M413.59 153.69c3.91 1.06 4.93 3.45 3.07 7.16-2.65-1.61-3.68-3.99-3.07-7.16Z"/>
  <path fill="#381420" d="M441.21 198.71c.17 3.76 0 7.53-.51 11.26l-2.05-2.05c-.74-4.76-.56-9.63.51-14.33-1.3-2.26-2.33-4.66-3.07-7.16 1.42-1.33 2.95-1.33 4.6 0 .51 4.08.68 8.17.51 12.28Z"/>
  <path fill="#5c1f36" d="M126.04 195.64c-.14 3.1.21 6.21 1.02 9.21v2.05c-.93-.73-1.27-1.75-1.02-3.07-1.2-.22-2.23.12-3.07 1.02 1.81 2 2.49 4.05 2.05 6.14-2.74-2.06-4.44-4.79-5.12-8.19h5.12v-3.07c-.27-1.64.07-3 1.02-4.09Z"/>
  <path fill="#e6c0cc" d="M140.37 185.41c1.34 5.92 2.02 12.06 2.05 18.42v5.12c-1.36-1.49-2.21-1.15-2.56 1.02l-1.02 20.47-1.02-1.02c-.51-9.54-.68-19.1-.51-28.65.79.78 1.3 1.8 1.53 3.07.18-6.32.69-12.46 1.53-18.42Z"/>
  <path fill="#c2919f" d="M116.83 215.08c3.56-.84 7.31-1.35 11.26-1.53-.94-2.09-1.29-4.31-1.02-6.65v-2.05c1.26-.23 2.29-.91 3.07-2.05 1.33 3.97 1.33 7.89 0 11.77-4.41.51-8.86.68-13.3.51Z"/>
  <path fill="#f3f3f3" d="M28.83 212.01c6.89 1.23 9.96 5.15 9.21 11.77-4.22 2.16-8.15 1.65-11.77-1.53-1.17-4.01-.31-7.42 2.56-10.23Z"/>
  <path fill="#891d39" d="M202.79 205.87c-.3 5.37.39 10.75 2.05 15.86-.03 1.09-.37 1.95-1.02 2.56-2.87-.84-5.94-1.35-9.21-1.53l-2.05-2.05c3.45-.18 6.88-.69 10.23-1.53-2.14-5.36-6.23-8.26-12.28-8.7-1.29-.43-1.97-1.28-2.05-2.56 4.3 1.77 8.75 3.14 13.3 4.09-.3-2.29.04-4.33 1.02-6.14Z"/>
  <path fill="#22131f" d="M428.93 218.15c-.86-.35-1.2-1.03-1.02-2.05a5.02 5.02 0 0 1 .51-3.07c1.72 1.69 1.89 3.39.51 5.12Z"/>
  <path fill="#d08aa1" d="M305.12 180.29c1.02 9.02 1.36 18.23 1.02 27.63v8.19c-.68 4.28-1.36 8.72-2.05 13.3-.67-6.48-1.35-12.96-2.05-19.44.59-1.51 1.46-2.9 2.56-4.09.51-8.52.68-17.05.51-25.58Z"/>
  <path fill="#e78e9a" d="M367.54 213.04c.94 4.79 1.96 9.57 3.07 14.33l-2.05 2.05a44.1 44.1 0 0 0-3.07-15.35l2.05-1.02Z"/>
  <path fill="#c26773" d="m142.42 203.83 2.05 31.72c.05 8.55-.46 17.1-1.53 25.58-.51-17.39-.68-34.79-.51-52.19v-5.12Z"/>
  <path fill="#ab1e41" d="M164.93 184.39c-.17 5.12 0 10.25.51 15.35l1.02-1.02c.49.97.66 1.99.51 3.07 3.23.47 6.35 1.51 9.21 3.07 1.07-.18 2.11-.53 3.07-1.02 2.73 2.31 5.8 3.68 9.21 4.09.08 1.28.76 2.13 2.05 2.56 6.05.44 10.14 3.34 12.28 8.7-3.35.84-6.78 1.36-10.23 1.53l2.05 2.05c3.27.19 6.34.7 9.21 1.53.17 3.08 0 6.17-.51 9.21a5 5 0 0 1-2.56 1.02 39.285 39.285 0 0 0-11.26-6.65c-9.4-1.78-18.78-3.65-28.14-5.63.33-3.39 1.01-6.8 2.05-10.23.17-9.39.69-18.6 1.53-27.63Z"/>
  <path fill="#581333" d="M165.95 212.01c6.97 1.27 13.82 3.16 20.47 5.63-4.68-.41-9.3-1.26-13.81-2.56-2.24.29-4.46.64-6.65 1.02v-4.09Z"/>
  <path fill="#481226" d="M441.21 225.32v4.09c.14.72-.05 1.47-.51 2.05-1.01-3.89-1.87-7.81-2.56-11.77l1.02-4.6c1.12 3.31 1.81 6.75 2.05 10.23Z"/>
  <path fill="#ca4364" d="M206.88 225.32c1.56 1.02 2.24 2.55 2.05 4.6l-1.02 3.58c-1-2.61-1.35-5.41-1.02-8.19Z"/>
  <path fill="#b83f67" d="M302.05 209.97c.68 6.32 1.36 12.8 2.05 19.44.68-4.59 1.37-9.02 2.05-13.3.56 9.38-.12 18.59-2.05 27.63-.63.11-1.14.45-1.53 1.02-.18-4.96-.69-9.74-1.53-14.33-.3-6.91.04-13.73 1.02-20.47Z"/>
  <path fill="#981a39" d="M235.53 212.01c.86 6.11 1.37 12.26 1.53 18.42 1.64-.66 3.18-1.52 4.6-2.56 10.43-2.17 21.08-3.03 31.72-2.56-.27-1.64.07-3 1.02-4.09.67 1.65 1.19 3.37 1.53 5.12.51 10.91.68 21.82.51 32.74-2.55.21-4.94-.3-7.16-1.53a35.026 35.026 0 0 0-7.67-6.65c-4.46 2.19-9.07 2.36-13.81.51-1.51-2.3-2.53-4.85-3.07-7.67a30.316 30.316 0 0 0-9.21-2.05v-29.68Z"/>
  <path fill="#411023" d="M240.65 235.55c1.13-1.12 2.49-1.29 4.09-.51 9.11 3.36 18.33 6.43 27.63 9.21-11.15-.84-21.73-3.74-31.72-8.7Z"/>
  <path fill="#d87481" d="m289.77 175.18 2.05 55.26c.38 6.52-.13 13.06-1.53 19.44-.51-24.9-.68-49.8-.51-74.7Z"/>
  <path fill="#bb6382" d="M341.96 237.6c-.72 2.38-1.4 4.77-2.05 7.16-1.76-1.2-2.44-2.9-2.05-5.12 1.39-.52 2.41-1.54 3.07-3.07.62.13.96.47 1.02 1.02Z"/>
  <path fill="#8e1836" d="M436.1 186.43c.74 2.5 1.77 4.9 3.07 7.16-1.08 4.7-1.25 9.56-.51 14.33l2.05 2.05c.51-3.74.68-7.49.51-11.26.72 2.38 1.4 4.77 2.05 7.16 3.46 1.97 5.85 4.86 7.16 8.7a26.154 26.154 0 0 1-5.12 9.72c-1.22.95-2.58 1.29-4.09 1.02-.24-3.48-.93-6.92-2.05-10.23l-1.02 4.6c.69 3.96 1.55 7.88 2.56 11.77.47-.57.65-1.32.51-2.05 4.53 2.65 8.28 6.23 11.26 10.74 2.27.23 4.51.75 6.65 1.53.88 4.15 2.44 8.12 4.6 11.77 2.44 1.97 3.97 4.53 4.6 7.67l1.02-2.05 1.02 8.19c.18-5.64.69-11.1 1.53-16.37-.17 9.22 0 18.43.51 27.63 1.8 3.17 2.65 6.58 2.56 10.23-.64 4.75-.98 9.53-1.02 14.33.17 2.06 0 4.13-.51 6.14a34.447 34.447 0 0 0-11.77-4.09c-2.57-1.97-3.93-4.7-4.09-8.19-1.02-1.37-2.04-2.73-3.07-4.09.96-1.58 1.65-3.31 2.05-5.12-.54-6.38-1.9-12.52-4.09-18.42-1.49-.07-2.86.27-4.09 1.02v-2.05a66.32 66.32 0 0 1-3.58-21.49c-.95-4.22-2.32-8.33-4.09-12.28.07 5.63.58 11.25 1.53 16.88-1.35 2.57-3.4 4.44-6.14 5.63-.53-2.6-1.21-5.16-2.05-7.67.59-2.71 1.63-5.3 3.07-7.67-.43-4.36-2.65-7.43-6.65-9.21-1-4.01-.49-7.77 1.53-11.26-.36-1.05-1.05-1.73-2.05-2.05-.68 0-1.02-.34-1.02-1.02 1.38-1.72 1.2-3.43-.51-5.12a5.02 5.02 0 0 0-.51 3.07c-.68-5.52-1.7-10.99-3.07-16.37a5.83 5.83 0 0 1 3.07-1.02c1.69-.25 3.29-.96 4.6-2.05 1.17.98 2.2.64 3.07-1.02-.38-3.24-.21-6.31.51-9.21Z"/>
  <path fill="#951937" d="M301.02 230.43c.85 4.59 1.36 9.36 1.53 14.33.39-.57.9-.91 1.53-1.02 2-.78 3.89-1.81 5.63-3.07 4.17.82 8.44 1.33 12.79 1.53 1.5.65 2.87 1.5 4.09 2.56 2.04-3.76 5.11-5.81 9.21-6.14-.3-2.29.04-4.33 1.02-6.14.5 2.36.85 4.75 1.02 7.16-.39 2.22.29 3.92 2.05 5.12.65-2.4 1.33-4.79 2.05-7.16.34 14.33 0 28.68-1.02 42.98a88.785 88.785 0 0 0-20.47-6.65l-2.05-2.05c-6.4.44-12.2-1.1-17.4-4.6a837.87 837.87 0 0 1 0-36.84Z"/>
  <path fill="#531225" d="M306.14 253.97c9.31 1.53 18.52 4.43 27.63 8.7a290.14 290.14 0 0 1-27.63-8.7Z"/>
  <path fill="#941936" d="M42.13 222.25c2.34 3.03 4.21 6.44 5.63 10.23.77.64 1.63 1.16 2.56 1.53 12.21 2.83 24.18 6.59 35.81 11.26 5.6 2.62 10.78 6.07 15.35 10.23 9.31 1.56 18.53 3.61 27.63 6.14.97 3.13 1.31 6.37 1.02 9.72v3.07c-.84 3.56-1.35 7.31-1.53 11.26-1.99-.47-3.35.55-4.09 3.07-.51-1.19-1.36-2.05-2.56-2.56.91-3.52.06-4.03-2.56-1.53-.5 1.66-.68 3.39-.51 5.12-2.6.53-5.16 1.21-7.67 2.05a99.788 99.788 0 0 0-19.44-5.12c-1.52 2.33-3.22 2.33-5.12 0-.8 3.75-.63 7.33.51 10.74-.56.73-1.24 1.25-2.05 1.53-.96-1.58-1.65-3.31-2.05-5.12-.85-3.12-1.88-6.2-3.07-9.21-2.59-7.09-4.98-14.26-7.16-21.49-5.35-9.83-2.79-12.9 7.67-9.21l1.53-1.02c-3.28-4.14-6.7-7.21-10.23-9.21-2.41-2.8-5.48-3.65-9.21-2.56-1.51 2.29-1.17 4.16 1.02 5.63 1.26 2.55 2.81 4.96 4.6 7.16 1.35 3.35 2.03 6.76 2.05 10.23-.58-1.52-1.45-2.9-2.56-4.09.21 1.05-.3 2.08-1.53 3.07-1.54-1.06-3.08-.89-4.6.51-5.63 4.27-11.26 8.54-16.88 12.79-.25-4.21-.42-8.3-.51-12.28.35-1.22.87-1.22 1.53 0 0-4.16.17-8.25.51-12.28-.35-1.22-.87-1.22-1.53 0-.18-3.27-.7-6.34-1.53-9.21-.98-6.77-1.33-13.63-1.02-20.47Z"/>
  <path fill="#f6ebed" d="M71.81 243.74c-2.05 2.54-4.78 3.56-8.19 3.07-2.2-1.47-2.54-3.34-1.02-5.63 3.73-1.09 6.8-.24 9.21 2.56Z"/>
  <path fill="#9d1b3c" d="M429.96 219.18c1 .32 1.68 1 2.05 2.05-2.03 3.49-2.54 7.24-1.53 11.26 4 1.78 6.22 4.85 6.65 9.21a25.124 25.124 0 0 0-3.07 7.67c.84 2.51 1.52 5.08 2.05 7.67-.17 3.08 0 6.17.51 9.21 1.03.86 2.23 1.2 3.58 1.02-2.1-4.83-1.25-8.92 2.56-12.28 1.22 3.99 1.91 8.11 2.05 12.28 1.03.86 2.23 1.2 3.58 1.02v2.05l-3.07 2.05a5.83 5.83 0 0 0-1.02 3.07c-1.96-.29-3.66.05-5.12 1.02-2.32 4.9-5.73 9.17-10.23 12.79l-6.14 1.53c-7.29-1.08-14.11-3.63-20.47-7.67-4.08-.89-8.18-1.75-12.28-2.56-1.52-1.82-3.57-2.5-6.14-2.05a69.93 69.93 0 0 1-15.86-8.19c-.51-3.04-.68-6.13-.51-9.21 1.36-1.2 2.57-2.58 3.58-4.09l1.02 1.02c4.05-.94 8.15-1.62 12.28-2.05 2.54 0 4.76.68 6.65 2.05-4.09.68-4.09 1.36 0 2.05 1.38-.54 2.74-.71 4.09-.51l8.19 8.19c9.88 6.36 18.41 4.66 25.58-5.12-5.23-3.61-5.4-8.21-.51-13.81.6-9.62.09-19.18-1.53-28.65.99-.1 2.02-.44 3.07-1.02Z"/>
  <path fill="#2a1113" d="M391.07 258.06v2.05c-4.09-.68-4.09-1.36 0-2.05Z"/>
  <path fill="#2d121b" d="M448.38 268.29c-1.35.17-2.55-.17-3.58-1.02-.14-4.17-.83-8.29-2.05-12.28-3.81 3.36-4.66 7.45-2.56 12.28-1.35.17-2.55-.17-3.58-1.02-.51-3.04-.68-6.13-.51-9.21 2.74-1.19 4.79-3.06 6.14-5.63-.95-5.58-1.46-11.22-1.53-16.88 1.77 3.95 3.14 8.06 4.09 12.28 0 7.31 1.21 14.57 3.58 21.49Z"/>
  <path fill="#ab4051" d="m345.03 263.18 2.05 14.33c.29 1.83-.05 3.54-1.02 5.12a4.71 4.71 0 0 1-2.05-1.53c1-5.91 1.34-11.92 1.02-17.91Z"/>
  <path fill="#d08b94" d="m347.07 277.5-2.05-14.33c-.04-1.29.47-2.31 1.53-3.07.51 5.79.68 11.59.51 17.4Z"/>
  <path fill="#0e0609" d="M445.31 272.39h3.07v6.14c-2.53.42-3.89-.6-4.09-3.07.05-1.1.4-2.16 1.02-3.07Z"/>
  <path fill="#29101a" d="M113.76 270.34c1.76 1.79 3.3 3.84 4.6 6.14.7.85.53 1.53-.51 2.05-1.9-2.43-3.29-5.21-4.09-8.19Z"/>
  <path fill="#200e15" d="M72.83 263.18c2.18 7.23 4.57 14.4 7.16 21.49-.32 1.27-.83 1.27-1.53 0-2.61-6.51-4.83-13.18-6.65-19.95.07-.78.41-1.29 1.02-1.53Z"/>
  <path fill="#ae6271" d="M156.74 286.71c-1.73 5.62-2.41 11.42-2.05 17.4-1.36-12.8-1.36-25.76 0-38.88.68 7.32 1.36 14.48 2.05 21.49Z"/>
  <path fill="#901834" d="M184.37 276.48c-4.78-1.54-9.22-3.93-13.3-7.16l-1.02 1.02c3.96 3.17 8.47 5.6 13.3 7.16a72.8 72.8 0 0 0 17.4 6.65c2.3 1.41 4.52 2.94 6.65 4.6l1.02 16.37c2.31 7.65 3.16 15.5 2.56 23.54-.56-2.06-1.58-3.94-3.07-5.63-11.54 3.38-21.26.48-29.16-8.7l-2.05-6.14c-2.45 1.13-2.96.45-1.53-2.05-3.28-6.79-8.23-8.84-14.84-6.14l-3.07-6.14c-2.36 2.3-2.02 4 1.02 5.12 1.41 4.82.39 8.92-3.07 12.28-.41-.23-.58-.58-.51-1.02v-6.14c-.36-5.98.32-11.78 2.05-17.4-.26-7.22.43-14.45 2.05-21.49 6.81.03 13.29 1.4 19.44 4.09 7.64-2.64 14.29-.93 19.95 5.12 1.39-.9 2.92-1.24 4.6-1.02.18 8.37-1.7 9.05-5.63 2.05-.49 2.2-1.85 3.22-4.09 3.07-2.87-.79-5.77-1.47-8.7-2.05Z"/>
  <path fill="#ba879d" d="M184.37 276.48c-.68 0-1.02.34-1.02 1.02a41.901 41.901 0 0 1-13.3-7.16l1.02-1.02c4.08 3.23 8.52 5.62 13.3 7.16Z"/>
  <path fill="#8b1733" d="M130.14 274.43v15.35c-1.48 7.8-2.67 15.65-3.58 23.54l-1.02-2.05c-1.8 2.9-4.18 3.59-7.16 2.05-5.63 1.18-11.26 2.38-16.88 3.58-1.84.99-3.56 2.19-5.12 3.58-.67-.36-1.36-.7-2.05-1.02-1.1-1.9-2.48-3.62-4.09-5.12.18-1.02-.17-1.7-1.02-2.05-.56-4.64-1.95-9.15-4.09-13.3.81-.29 1.49-.8 2.05-1.53-1.14-3.41-1.31-6.99-.51-10.74 1.89 2.33 3.6 2.33 5.12 0a98.9 98.9 0 0 1 19.44 5.12c2.51-.84 5.08-1.52 7.67-2.05-.17-1.72 0-3.46.51-5.12 2.62-2.5 3.47-1.99 2.56 1.53 1.19.51 2.05 1.36 2.56 2.56.74-2.52 2.1-3.54 4.09-3.07.18-3.95.69-7.7 1.53-11.26Z"/>
  <path fill="#8d1836" d="M43.16 242.71c.84 2.87 1.35 5.94 1.53 9.21.67-1.22 1.18-1.22 1.53 0-.34 4.03-.51 8.12-.51 12.28-.67-1.22-1.18-1.22-1.53 0 .09 3.98.26 8.07.51 12.28 5.62-4.26 11.25-8.52 16.88-12.79 1.53-1.4 3.06-1.57 4.6-.51 1.23-.99 1.74-2.02 1.53-3.07 1.11 1.19 1.97 2.58 2.56 4.09-.01-3.48-.7-6.89-2.05-10.23-1.8-2.21-3.34-4.61-4.6-7.16 3.41.49 6.14-.53 8.19-3.07 3.54 2 6.95 5.07 10.23 9.21l-1.53 1.02c-10.46-3.69-13.02-.62-7.67 9.21-.61.24-.95.75-1.02 1.53 1.82 6.78 4.04 13.44 6.65 19.95.71 1.27 1.22 1.27 1.53 0 1.19 3.01 2.22 6.09 3.07 9.21-.61.24-.95.75-1.02 1.53 2.26 5.68 4.65 11.31 7.16 16.88.16 1.39-.01 2.79-.51 4.09-.61-1.9-1.47-2.24-2.56-1.02-4.62-.57-9.23-1.25-13.81-2.05-3.04 1.6-5.66 3.87-7.67 6.65-3.99 1.51-8.1 2.71-12.28 3.58-2.89-7.82-5.78-15.67-8.7-23.54-.18-4.96-.69-9.74-1.53-14.33.12-6.33-.22-12.64-1.02-18.93.99-7.99 1.67-16.01 2.05-24.05Z"/>
  <path fill="#190f14" d="M56.46 286.71c2.28.84 2.96 2.21 2.05 4.09-1.65-.84-2.33-2.2-2.05-4.09Z"/>
  <path fill="#951a2e" d="M300 280.57c2.79 1.24 5.18 3.12 7.16 5.63l18.42 1.02c7.34 2.25 14.52 4.98 21.49 8.19-7.26 2.16-14.42 1.99-21.49-.51-2.2.08-4.33.79-6.14 2.05-3.54-5.01-8.32-8.25-14.33-9.72-2.1-2-3.8-4.22-5.12-6.65Z"/>
  <path fill="#901834" d="M366.51 261.13h1.02c-.17 3.08 0 6.17.51 9.21a70.336 70.336 0 0 0 15.86 8.19c1 1.68 2.37 3.05 4.09 4.09 1.05-.36 1.73-1.05 2.05-2.05 4.06.8 8.15 1.65 12.28 2.56 6.36 4.04 13.18 6.6 20.47 7.67l6.14-1.53c4.51-3.62 7.92-7.89 10.23-12.79-.32 3.62.02 7.04 1.02 10.23v8.19c.63 4.52 1.66 8.97 3.07 13.3-2.4.17-4.81 0-7.16-.51a177.106 177.106 0 0 0-41.95-13.3c-1.23-1.65-2.6-3.19-4.09-4.6a7.063 7.063 0 0 1-4.09 2.05 97.074 97.074 0 0 0-22.51-5.63c-.7-4.43.15-8.69 2.56-12.79.51-4.08.68-8.17.51-12.28Z"/>
  <path fill="#221017" d="M383.91 278.53c2.57-.46 4.62.23 6.14 2.05-.32 1-1 1.68-2.05 2.05a11.693 11.693 0 0 1-4.09-4.09Z"/>
  <path fill="#2e111a" d="M440.19 294.9v-8.19c.81-2.71 1.49-2.54 2.05.51.67 2.5 1.02 5.08 1.02 7.67h-3.07Z"/>
  <path fill="#7d1231" d="M457.59 296.95c-1.51 2.3-2.88 4.69-4.09 7.16-1.26-2.63-3.3-4-6.14-4.09.55 3.27-.13 6-2.05 8.19h-2.05a77.733 77.733 0 0 1-3.07-13.3h3.07c0-2.59-.35-5.17-1.02-7.67-.55-3.05-1.23-3.23-2.05-.51-1-3.2-1.34-6.61-1.02-10.23 1.45-.97 3.16-1.31 5.12-1.02.2 2.47 1.56 3.49 4.09 3.07v-6.14h-3.07l3.07-2.05c1.24-.75 2.6-1.09 4.09-1.02 2.19 5.9 3.56 12.04 4.09 18.42-.39 1.81-1.08 3.54-2.05 5.12 1.03 1.36 2.05 2.72 3.07 4.09Z"/>
  <path fill="#13090b" d="M446.33 280.57c1.28.85 1.96 2.22 2.05 4.09l-.51 4.09c-1.1-2.59-1.62-5.38-1.53-8.19Z"/>
  <path fill="#3f1828" d="M42.13 285.69a98.09 98.09 0 0 1 1.53 14.33c2.91 7.87 5.81 15.71 8.7 23.54-2.82-4.27-5.38-9.38-7.67-15.35l-1.02-1.02c-.39 1.48-1.24 2.5-2.56 3.07 0-8.2.34-16.39 1.02-24.56Z"/>
  <path fill="#31121a" d="M83.07 293.88a16.61 16.61 0 0 0 2.05 5.12c2.15 4.15 3.53 8.66 4.09 13.3-2.52-5.57-4.9-11.2-7.16-16.88.07-.78.41-1.29 1.02-1.53Z"/>
  <path fill="#9c272b" d="M362.42 300.02c5.08.68 10.2 1.19 15.35 1.53.86 1.03 1.2 2.23 1.02 3.58-4.78.17-9.57 0-14.33-.51-1.57-1.14-2.25-2.67-2.05-4.6Z"/>
  <path fill="#a11d27" d="M228.37 297.97c-.68 15.01-1.36 15.01-2.05 0 1.35-14.91 2.03-14.91 2.05 0Z"/>
  <path fill="#650f27" d="M457.59 296.95c.16 3.49 1.53 6.22 4.09 8.19a2.53 2.53 0 0 0-2.05.51c2.16.86 4.21 1.72 6.14 2.56-2.1-.31-4.25.04-6.14 1.02-.39 1.75-1.41 2.78-3.07 3.07-4.27-.17-8.02-1.53-11.26-4.09 1.91-2.18 2.6-4.91 2.05-8.19 2.84.1 4.88 1.46 6.14 4.09 1.21-2.47 2.58-4.86 4.09-7.16Z"/>
  <path fill="#881634" d="M265.21 298.99c4.6 0 8.86 1.02 12.79 3.07.74 9.55.57 19.14-.51 28.65 2.13 5 1.96 10.12-.51 15.35a7.52 7.52 0 0 1-2.56 2.05c-1.43-1.39-3.13-2.25-5.12-2.56-5.28.03-10.4.2-15.35.51l-10.23-3.07c-3.15 1.89-6.57 2.4-10.23 1.53a717.15 717.15 0 0 0-4.6-9.72l-1.02 5.12-1.02-9.21c-.18 3.61-.69 7.02-1.53 10.23-.34-14.33 0-28.68 1.02-42.98.68 15.01 1.36 15.01 2.05 0 .85 9.71 1.36 19.6 1.53 29.68 1.23-13.96 2.09-27.95 2.56-41.95 2.74-.17 5.49 0 8.19.51 2.06 1.59 2.4 3.47 1.02 5.63a47.458 47.458 0 0 0-6.14 5.63c3.62-.53 6.86-2.06 9.72-4.6 4.94.67 7.5 3.4 7.67 8.19 4.17-.04 8.32-.73 12.28-2.05Z"/>
  <path fill="#941930" d="M441.21 315.37c4.11 2.63 3.43 3.65-2.05 3.07-17.97-4.72-36.05-8.98-54.23-12.79-2.62-3.42-1.59-5.29 3.07-5.63 6.52 1 13 2.19 19.44 3.58a660.94 660.94 0 0 1 33.77 11.77Z"/>
  <path fill="#30131d" d="M473.96 303.09c1.01 3.89 1.35 7.98 1.02 12.28-1.53-4.25-4.6-6.63-9.21-7.16-2.03-.88-4.08-1.74-6.14-2.56.57-.47 1.32-.65 2.05-.51 4.14.64 8.13 2.03 11.77 4.09.51-2.02.68-4.07.51-6.14Z"/>
  <path fill="#851535" d="M52.37 323.55c4.18-.87 8.29-2.07 12.28-3.58 2.01-2.78 4.64-5.05 7.67-6.65 4.59.79 9.19 1.48 13.81 2.05.04 2.3.89 2.98 2.56 2.05l1.53 1.53c-5.69.72-11.15 2.08-16.37 4.09 4.59.75 9.02.24 13.3-1.53 1.83.2 3.19 1.05 4.09 2.56a54.775 54.775 0 0 0-4.6 8.7c-1.77 2.63-3.99 4.67-6.65 6.14a35.647 35.647 0 0 0-5.63-6.14c-.77.14-1.48.49-2.05 1.02.61 4.5-1.27 6.55-5.63 6.14v4.09c4.46-1.61 8.55-.93 12.28 2.05.11.63.45 1.14 1.02 1.53-1.14.25-2.19.78-3.07 1.53-4.72 7.96-11.03 14.44-18.93 19.44a77.419 77.419 0 0 0-3.58 7.67l1.02 1.02c-1.99 2.51-4.37 4.39-7.16 5.63-1.78.96-3.48.96-5.12 0-.61-4.78-1.3-9.56-2.05-14.33-.52-15.69-1.03-31.38-1.53-47.07-2.21-4.13-1.7-7.89 1.53-11.26 1.32-.57 2.17-1.59 2.56-3.07l1.02 1.02c2.3 5.96 4.86 11.08 7.67 15.35Z"/>
  <path fill="#871632" d="M437.12 322.53c2.63.75 5.36.75 8.19 0h1.02c-.89 3.29-2.94 5.67-6.14 7.16 5.46 7.32 6.14 14.99 2.05 23.02-.97.63-1.82.46-2.56-.51-.31-7.79-4.23-12.57-11.77-14.33-7.85 3.62-15.38 7.9-22.51 12.79a104.8 104.8 0 0 1-11.77 12.79c-1.86-.85-3.73-1.7-5.63-2.56-4.59-7.15-8.68-6.64-12.28 1.53.48 2.11 1.16 4.17 2.05 6.14-3.92 9.3-10.4 12.03-19.44 8.19.22 1.72-.46 2.74-2.05 3.07v-2.05c-.23-4.61.45-9.04 2.05-13.3.93 3.38 2.46 3.72 4.6 1.02.51-6.13.68-12.27.51-18.42.55-12.29 1.23-24.57 2.05-36.84 9.86 2.6 19.6 5.67 29.16 9.21l3.58-1.02c-.75-1.85-1.79-3.58-3.07-5.12.21-.59.56-1.12 1.02-1.53 5.71-.9 9.46 1.32 11.26 6.65.95-1.22 1.29-2.58 1.02-4.09 10.38.05 19.93 2.78 28.65 8.19Z"/>
  <path fill="#801d37" d="M465.77 308.2c4.61.53 7.68 2.92 9.21 7.16.14 1.66-.54 2.85-2.05 3.58 1.69 1.48 2.38 3.35 2.05 5.63-4.53-.54-8.99-1.57-13.3-3.07a67.332 67.332 0 0 0-12.28-5.12c-1.22.35-1.22.87 0 1.53 2.4.73 4.45 1.92 6.14 3.58l-2.05 1.02a44.519 44.519 0 0 0-10.23-3.07l-3.07 1.02c1.72.64 3.43 1.32 5.12 2.05-2.83.75-5.56.75-8.19 0 1.34-.99 2.02-2.35 2.05-4.09 5.48.58 6.16-.44 2.05-3.07 2.15-1.16 4.37-2.18 6.65-3.07 3.05 1.26 5.95 1.26 8.7 0 1.66-.29 2.68-1.32 3.07-3.07 1.89-.98 4.04-1.34 6.14-1.02Z"/>
  <path fill="#efe2e8" d="M459.63 315.37c2.92-1.43 5.65-.92 8.19 1.53-3.07.91-5.8.4-8.19-1.53Z"/>
  <path fill="#dfd0d8" d="m461.68 321.5-4.09 2.05c-3.9 1.4-7.65 1.06-11.26-1.02h-1.02c-1.69-.72-3.39-1.41-5.12-2.05l3.07-1.02c3.52.61 6.96 1.64 10.23 3.07l2.05-1.02c-1.69-1.66-3.74-2.85-6.14-3.58-1.22-.67-1.22-1.18 0-1.53 4.25 1.29 8.37 3.01 12.28 5.12Z"/>
  <path fill="#811330" d="M210.98 328.67c.01 2.09.36 4.16 1.02 6.14-1.08 1.13-1.94 2.49-2.56 4.09a52.36 52.36 0 0 1-3.58 13.3c-2.2-3.15-5.27-4.68-9.21-4.6-2.15-.96-3.94-2.57-5.12-4.6-1.84-.78-3.72-1.47-5.63-2.05-1.69.33-2.71 1.35-3.07 3.07-2.73-.51-5.34-1.56-7.67-3.07-1.57 1.83-2.59 3.88-3.07 6.14-5.41 1.95-10.36 1.26-14.84-2.05-.77.14-1.48.49-2.05 1.02-.99-3.37-1.84-6.79-2.56-10.23v-3.07c-.17-6.49 0-12.97.51-19.44.24-1.27.75-2.29 1.53-3.07-.07.45.1.79.51 1.02 3.46-3.36 4.48-7.45 3.07-12.28-3.04-1.12-3.38-2.82-1.02-5.12l3.07 6.14c6.61-2.7 11.55-.65 14.84 6.14-1.42 2.49-.91 3.17 1.53 2.05l2.05 6.14c7.9 9.18 17.62 12.08 29.16 8.7 1.49 1.69 2.51 3.56 3.07 5.63Z"/>
  <path fill="#f4e9eb" d="M415.63 322.53c4.36.12 6.92 2.17 7.67 6.14-.57.53-1.28.89-2.05 1.02-3.95-.84-5.83-3.23-5.63-7.16Z"/>
  <path fill="#811430" d="M333.77 311.27c.15 2.58.49 5.15 1.02 7.67-1.05 2.37-2.58 2.88-4.6 1.53-1.7 3.69-2.04 7.44-1.02 11.26a7.1 7.1 0 0 1-2.56 3.58c-1.93.22-3.63.9-5.12 2.05 2.57 2.37 3.6 5.1 3.07 8.19 1.02 1.71 2.39 3.07 4.09 4.09-1.12 2.11-1.29 4.33-.51 6.65 1.3 2.26 2.33 4.66 3.07 7.16 4.65 1.95 9.25 4 13.81 6.14.7.52 1.23 1.23 1.53 2.05 1.03-.86 2.23-1.2 3.58-1.02 1.14 2.3 1.48 7.41 1.02 15.35-1.36 1.49-2.21 1.15-2.56-1.02-.38 1.44-1.23 2.47-2.56 3.07l-5.63-7.16-1.02 1.02c-7.74-8.1-16.52-15.16-26.09-20.98a72.567 72.567 0 0 1-11.26-9.21c-1.67-.55-3.04-.04-4.09 1.53l-2.05-1.02a18.258 18.258 0 0 0-4.09 6.14c-.68 0-1.02-.34-1.02-1.02.97-2.17 2.17-4.23 3.58-6.14.22-14.36.74-28.68 1.53-42.98a56.3 56.3 0 0 0 17.91-3.07c6.41 2.76 13.1 4.82 19.95 6.14Z"/>
  <path fill="#b7adb9" d="M406.42 325.6c1.96-1.47 3.67-1.13 5.12 1.02l-1.02 1.02c-1.15-1.16-2.51-1.84-4.09-2.05Z"/>
  <path fill="#dddfdf" d="M495.45 325.6c2.45 1.42 4.15 3.47 5.12 6.14-4.08 1.25-8.18 1.08-12.28-.51-10.87-8.41-9.84-9.61 3.07-3.58 1.35-.72 2.71-1.4 4.09-2.05Z"/>
  <path fill="#a9929d" d="M461.68 321.5c4.31 1.5 8.77 2.53 13.3 3.07.93.73 1.27 1.75 1.02 3.07h-1.02c-5.51-2.49-11.31-3.85-17.4-4.09l4.09-2.05Z"/>
  <path fill="#7e122f" d="M136.28 335.83c-1.63 7.43-2.82 14.95-3.58 22.51a4.71 4.71 0 0 1-1.53 2.05c-1.28-2.09-2.99-3.79-5.12-5.12-.85 1.7-2.04 3.06-3.58 4.09-3.21-1.33-5.94-3.38-8.19-6.14a9.77 9.77 0 0 1-1.53 2.56c-4.71.58-9.14 1.61-13.3 3.07 5.35-4.4 5.01-8.49-1.02-12.28l-5.12-1.02c1.46-.22 2.85-.74 4.09-1.53-.13-.62-.47-.96-1.02-1.02l-1.02-2.05c-1.13-1.12-2.49-1.29-4.09-.51-1.1.98-2.3 1.83-3.58 2.56-2.19-.04-4.41-.39-6.65-1.02-.05-1.1-.4-2.16-1.02-3.07 2.66-1.47 4.88-3.51 6.65-6.14a55.21 55.21 0 0 1 4.6-8.7c-.9-1.51-2.27-2.36-4.09-2.56-4.28 1.77-8.71 2.28-13.3 1.53a69.388 69.388 0 0 1 16.37-4.09l-1.53-1.53c-1.66.93-2.52.25-2.56-2.05 1.09-1.22 1.94-.88 2.56 1.02.5-1.3.67-2.71.51-4.09.86.35 1.2 1.03 1.02 2.05 1.65 4.8 3.35 9.57 5.12 14.33.68 1.36 1.36 1.36 2.05 0a49.792 49.792 0 0 1-3.07-9.21c.67.31 1.35.65 2.05 1.02 1.56-1.39 3.28-2.59 5.12-3.58 5.66-1.21 11.29-2.4 16.88-3.58 2.98 1.54 5.37.86 7.16-2.05l1.02 2.05c.91-7.89 2.1-15.74 3.58-23.54v47.07h4.09c-.95-10.2-1.29-20.45-1.02-30.7-.34-6.16 0-12.34 1.02-18.42 1.58 15.98 2.26 32.04 2.05 48.09Z"/>
  <path fill="#180d13" d="M90.23 314.34c1.61 1.49 2.99 3.22 4.09 5.12.72 3.16 1.75 6.25 3.07 9.21-.68 1.36-1.36 1.36-2.05 0-1.76-4.75-3.47-9.53-5.12-14.33Z"/>
  <path fill="#8d3b53" d="M130.14 271.36c.86 18.75 1.37 37.51 1.53 56.28.17-7.35.69-14.51 1.53-21.49-.26 10.24.08 20.49 1.02 30.7h-4.09v-65.49Z"/>
  <path fill="#2c121a" d="M80 338.9c.62.91.96 1.94 1.02 3.07.35 2.03-.33 3.39-2.05 4.09-3.72-2.98-7.82-3.66-12.28-2.05v-4.09c4.36.41 6.23-1.64 5.63-6.14.57-.53 1.28-.89 2.05-1.02 2.11 1.82 4 3.88 5.63 6.14Z"/>
  <path fill="#7e1331" d="M446.33 322.53c3.61 2.09 7.36 2.43 11.26 1.02a46.56 46.56 0 0 1 17.4 4.09v15.35c-4.85-.7-9.28-2.41-13.3-5.12-1.52-.94-2.88-2.14-4.09-3.58 1.07-1.31 2.27-2.51 3.58-3.58.7-.85.53-1.53-.51-2.05-1.92 2.29-4.31 3.65-7.16 4.09v-4.09h-3.07c-.32 4.3.02 8.39 1.02 12.28v13.3c-1.64.81-2.32 2.17-2.05 4.09.19 5.77-2.03 10.55-6.65 14.33-.6 3.56-1.8 6.8-3.58 9.72 1.04 1.07 1.21 2.27.51 3.58-2.34 4.56-5.59 8.31-9.72 11.26l-14.33-4.09c-5.88 2.02-11.85 3.72-17.91 5.12l-12.28-2.05c-9.61 2.93-17.46.55-23.54-7.16-1.26-1.14-2.46-1.14-3.58 0a44.757 44.757 0 0 1-2.05-9.21c1.58-.33 2.27-1.35 2.05-3.07 9.04 3.85 15.52 1.12 19.44-8.19-.89-1.97-1.57-4.03-2.05-6.14 3.6-8.18 7.69-8.69 12.28-1.53 1.89.86 3.77 1.71 5.63 2.56 4.27-3.93 8.2-8.21 11.77-12.79 7.13-4.89 14.66-9.17 22.51-12.79 7.54 1.76 11.46 6.53 11.77 14.33.73.97 1.59 1.14 2.56.51 4.1-8.03 3.41-15.71-2.05-23.02 3.2-1.49 5.25-3.88 6.14-7.16Z"/>
  <path fill="#44111f" d="M461.68 337.88a82.68 82.68 0 0 1-10.23-2.05v5.12c-1.01-3.89-1.35-7.98-1.02-12.28h3.07v4.09c2.85-.44 5.24-1.81 7.16-4.09 1.04.51 1.22 1.2.51 2.05a25.237 25.237 0 0 0-3.58 3.58c1.21 1.44 2.58 2.64 4.09 3.58Z"/>
  <path fill="#230e17" d="M474.98 327.64H476c.17 5.46 0 10.93-.51 16.37-.2 1.93-.71 3.63-1.53 5.12.27-1.51-.07-2.88-1.02-4.09a104.84 104.84 0 0 0-15.86-6.14c-1.36.26-2.38.94-3.07 2.05-.08 5.04.09 9.81.51 14.33 1.09 2.43.07 3.46-3.07 3.07v-22.51c3.37.89 6.78 1.58 10.23 2.05 4.02 2.71 8.46 4.41 13.3 5.12v-15.35Z"/>
  <path fill="#8a1736" d="M352.19 396.2c-1-3.2-1.34-6.61-1.02-10.23.45-7.94.11-13.05-1.02-15.35-1.35-.17-2.55.17-3.58 1.02a4.71 4.71 0 0 0-1.53-2.05c-4.56-2.14-9.17-4.19-13.81-6.14-.74-2.5-1.77-4.9-3.07-7.16-.78-2.32-.6-4.54.51-6.65a11.694 11.694 0 0 1-4.09-4.09c.53-3.08-.5-5.81-3.07-8.19 1.48-1.14 3.19-1.83 5.12-2.05a7.16 7.16 0 0 0 2.56-3.58c-1.02-3.81-.68-7.56 1.02-11.26 2.02 1.35 3.56.84 4.6-1.53a52.14 52.14 0 0 1-1.02-7.67c1.17-1.69 2.55-3.24 4.09-4.6 4.51-1.29 8.43-.44 11.77 2.56.56 10.23.39 20.49-.51 30.7.23 8.58 1.09 17.13 2.56 25.58.51 10.23.68 20.46.51 30.7Z"/>
  <path fill="#c99ea8" d="M152.65 332.76v3.07c.34 6.16 0 12.34-1.02 18.42-.7-.52-1.23-1.23-1.53-2.05-.28.94-.8 1.62-1.53 2.05-.17-5.47 0-10.93.51-16.37 1.72-1.42 2.92-3.12 3.58-5.12Z"/>
  <path fill="#dcb3c5" d="m360.37 337.88 2.05 13.3c.17 3.08 0 6.17-.51 9.21-1.14-7.45-1.65-14.98-1.53-22.51Z"/>
  <path fill="#740f2a" d="M212 334.81c1.02 11.07 1.36 22.33 1.02 33.77-1.48 3.52-2.5 7.27-3.07 11.26-2.1.19-4.22-.16-6.14-1.02-4.58 3.84-9.36 7.42-14.33 10.74-3.38.68-6.86.68-10.23 0-1.99-1.95-4.37-2.8-7.16-2.56.28 1.92-.41 3.29-2.05 4.09a36.517 36.517 0 0 0-4.09-7.16c-.1 2.67.58 5.06 2.05 7.16-.5 2.89-2.21 4.25-5.12 4.09v3.07c-4.72-.19-9.5-.19-14.33 0-1.37 1.22-2.05 2.75-2.05 4.6.91 2.87 1.08 5.77.51 8.7-.83 1.35-2.03 2.04-3.58 2.05v-3.07c1.88-18.74 3.58-37.5 5.12-56.28.74-.43 1.25-1.11 1.53-2.05.31.81.84 1.52 1.53 2.05 1.02-6.08 1.36-12.26 1.02-18.42.71 3.44 1.57 6.86 2.56 10.23.57-.53 1.28-.89 2.05-1.02 4.48 3.31 9.42 3.99 14.84 2.05.48-2.26 1.5-4.31 3.07-6.14 2.33 1.51 4.94 2.56 7.67 3.07.36-1.72 1.38-2.74 3.07-3.07 1.91.58 3.79 1.26 5.63 2.05 1.18 2.04 2.97 3.65 5.12 4.6 3.94-.08 7.01 1.46 9.21 4.6a52.06 52.06 0 0 0 3.58-13.3c.62-1.6 1.48-2.97 2.56-4.09Z"/>
  <path fill="#78102e" d="M136.28 335.83c.78 2.66 1.13 5.42 1.02 8.19-.99 6.52-2.19 13-3.58 19.44l-1.53 1.53c-4.18.87-8.29 2.07-12.28 3.58a15.744 15.744 0 0 0-7.16-3.07c-5.23-.39-10.35.29-15.35 2.05.27-1.51-.07-2.88-1.02-4.09-1.87.43-3.92.43-6.14 0 .16-1.39-.01-2.79-.51-4.09-2-1.75-3.88-3.63-5.63-5.63-3.06-.87-4.42.33-4.09 3.58-1.38-1.01-2.4-2.37-3.07-4.09-1.34 4.83-1.17 9.61.51 14.33.72.9 1.58 1.58 2.56 2.05.24.61.75.95 1.53 1.02 2.85-1.53 5.92-2.55 9.21-3.07 1.53.17 2.39 1.02 2.56 2.56-2.62 10.25-6.38 19.97-11.26 29.16-4.36 4-8.79 4-13.3 0-1.51-4.41-4.58-6.63-9.21-6.65-2.53-2.3-5.27-4.35-8.19-6.14-2.45-.38-4.84-.38-7.16 0 1.86-.76 3.23-1.95 4.09-3.58 2.79-1.24 5.18-3.12 7.16-5.63l-1.02-1.02c1.05-2.62 2.25-5.18 3.58-7.67 7.9-5 14.21-11.48 18.93-19.44.88-.76 1.93-1.29 3.07-1.53-.57-.39-.91-.9-1.02-1.53 1.72-.7 2.4-2.06 2.05-4.09 2.25.64 4.46.98 6.65 1.02a20.48 20.48 0 0 0 3.58-2.56c1.6-.78 2.97-.61 4.09.51-1.58.33-2.27 1.35-2.05 3.07 1.32.24 2.34-.1 3.07-1.02.56.06.9.4 1.02 1.02a10.42 10.42 0 0 1-4.09 1.53l5.12 1.02c6.04 3.79 6.38 7.88 1.02 12.28 4.16-1.46 8.59-2.49 13.3-3.07.64-.77 1.16-1.63 1.53-2.56 2.25 2.76 4.97 4.81 8.19 6.14 1.54-1.03 2.74-2.39 3.58-4.09 2.13 1.33 3.83 3.03 5.12 5.12.7-.52 1.23-1.23 1.53-2.05.76-7.57 1.96-15.08 3.58-22.51Z"/>
  <path fill="#0b0808" d="m95.34 340.95 1.02 2.05c-.73.93-1.75 1.27-3.07 1.02-.22-1.72.46-2.74 2.05-3.07Z"/>
  <path fill="#720e29" d="M137.3 344.02c1.16 14.64 1.85 29.32 2.05 44 .17 1.72 0 3.46-.51 5.12-.3-3.48-.99-6.91-2.05-10.23a32.356 32.356 0 0 0-1.53 11.77c1.89 1.12 2.57 2.48 2.05 4.09-2.87 1.26-5.94 1.94-9.21 2.05-.46.42-.82.95-1.02 1.53 1.24.79 2.64 1.32 4.09 1.53-.94.28-1.62.8-2.05 1.53-1.02.34-1.71 1.02-2.05 2.05-.79.78-1.3 1.8-1.53 3.07l-1.02-4.09a17.616 17.616 0 0 1-4.6 4.09c-6.85-1.56-13.33-3.94-19.44-7.16l-3.07.51c.36 1.66.36 3.54 0 5.63-4.62.94-9.09 2.49-13.3 4.6-4.94.71-9.96.54-14.84-.51a141.81 141.81 0 0 1-13.81 3.07c-.6-2.84-1.97-5.23-4.09-7.16-.51-1.62-1.54-2.13-3.07-1.53-.99 1.46-1.84 3-2.56 4.6-.43-4.45-1.11-4.79-2.05-1.02-.39-.57-.9-.91-1.53-1.02-.14-13.99-.48-27.98-1.02-41.95.75 4.77 1.43 9.54 2.05 14.33 1.63.96 3.34.96 5.12 0-.87 1.63-2.23 2.82-4.09 3.58 2.32-.38 4.71-.38 7.16 0 2.92 1.78 5.66 3.84 8.19 6.14 4.63.02 7.7 2.24 9.21 6.65 4.51 4 8.94 4 13.3 0 4.88-9.19 8.63-18.91 11.26-29.16-.17-1.53-1.02-2.39-2.56-2.56-3.29.52-6.36 1.54-9.21 3.07-.78-.07-1.29-.41-1.53-1.02.56-3.15 1.58-6.22 3.07-9.21-1.3-.81-2.32-1.83-3.07-3.07-.33-3.25 1.03-4.45 4.09-3.58 1.75 2 3.63 3.88 5.63 5.63.5 1.3.67 2.71.51 4.09 2.22.43 4.27.43 6.14 0 .95 1.22 1.29 2.58 1.02 4.09 5-1.75 10.12-2.44 15.35-2.05 2.67.43 5.06 1.46 7.16 3.07 3.99-1.51 8.1-2.71 12.28-3.58l1.53-1.53c1.4-6.44 2.59-12.93 3.58-19.44Z"/>
  <path fill="#9f4560" d="M360.37 337.88c-.12 7.53.39 15.06 1.53 22.51.51-3.05.68-6.12.51-9.21-.27-1.64.07-3 1.02-4.09.17 6.14 0 12.29-.51 18.42-2.14 2.7-3.68 2.36-4.6-1.02-.17-8.53 0-17.06.51-25.58.39-.57.9-.91 1.53-1.02Z"/>
  <path fill="#8a435b" d="m285.68 341.97 2.05 22.51c.29 1.83-.05 3.54-1.02 5.12-1.02-9.17-1.36-18.41-1.02-27.63Z"/>
  <path fill="#79112f" d="M351.17 385.97c-.32 3.62.02 7.04 1.02 10.23-.31 2.1.04 4.25 1.02 6.14.62-8.39 1.65-16.57 3.07-24.56v2.05c.35 3.13 1.04 6.22 2.05 9.21 1.12-1.14 2.32-1.14 3.58 0 6.08 7.71 13.92 10.1 23.54 7.16l12.28 2.05c6.05-1.39 12.03-3.1 17.91-5.12l14.33 4.09c4.14-2.94 7.38-6.7 9.72-11.26.7-1.31.53-2.51-.51-3.58 1.78-2.92 2.98-6.16 3.58-9.72 4.62-3.78 6.84-8.55 6.65-14.33.5 3.9.84 7.82 1.02 11.77.22 3.67-.46 7.08-2.05 10.23a15.96 15.96 0 0 1 2.05 4.6c.34 4.46 0 8.95-1.02 13.3-2.43 1.81-5.16 3-8.19 3.58-2 3.88-5.07 6.43-9.21 7.67 1.53.66 2.55 1.68 3.07 3.07h-2.05c-.69-.32-1.37-.66-2.05-1.02-5.09 4.42-10.89 7.49-17.4 9.21-2.09-1.16-4.13-1.16-6.14 0-1.24-.79-1.24-1.64 0-2.56-1.3-.5-2.71-.67-4.09-.51.33-2.27-.35-4.15-2.05-5.63-3.81-1.79-7.56-1.79-11.26 0-6.14.68-12.28.68-18.42 0l-5.12-7.16c-2.73-.79-5.32-2-7.67-3.58-1 2.43-1.68 2.09-2.05-1.02-2.03 9.27-6.98 10.64-14.84 4.09-1.17-3.53-3.21-6.43-6.14-8.7-4.98-1.08-8.05-3.98-9.21-8.7-2.53-.24-4.24-1.61-5.12-4.09-.46-4.82-1.82-9.25-4.09-13.3-3.22-.31-5.43-2.01-6.65-5.12-.63.97-.46 1.82.51 2.56-5.66-.92-11.12-2.8-16.37-5.63l-3.07 2.05c-.66-2.09-.66-3.79 0-5.12.93-2.3 2.33-4.39 4.09-6.14l2.05 1.02c1.06-1.58 2.42-2.09 4.09-1.53 3.43 3.44 7.2 6.52 11.26 9.21 9.58 5.82 18.35 12.87 26.09 20.98l1.02-1.02 5.63 7.16c1.33-.6 2.18-1.63 2.56-3.07.35 2.17 1.2 2.51 2.56 1.02Z"/>
  <path fill="#730e2b" d="M265.21 298.99c3.21-1.17 6.62-1.34 10.23-.51a7.1 7.1 0 0 1 3.58 2.56c.79 9.75.62 19.47-.51 29.16 1.84 8.58 2.87 17.32 3.07 26.09-.31 2.1.04 4.25 1.02 6.14 1.01-4.01 1.36-8.16 1.02-12.28-.33-3.45.02-6.92 1.02-10.23.82.47 1.16 1.15 1.02 2.05-.34 9.22 0 18.46 1.02 27.63.97-1.58 1.31-3.29 1.02-5.12.78-2.58 1.81-4.96 3.07-7.16 0 .68.34 1.02 1.02 1.02-.66 1.32-.66 3.03 0 5.12l3.07-2.05c5.25 2.83 10.71 4.71 16.37 5.63-.97-.73-1.14-1.59-.51-2.56 1.22 3.1 3.44 4.81 6.65 5.12 2.27 4.05 3.64 8.49 4.09 13.3.88 2.49 2.59 3.85 5.12 4.09 1.16 4.71 4.23 7.61 9.21 8.7 2.93 2.27 4.97 5.17 6.14 8.7 7.86 6.55 12.81 5.18 14.84-4.09.37 3.11 1.05 3.46 2.05 1.02 2.36 1.58 4.95 2.79 7.67 3.58l5.12 7.16c6.14.68 12.28.68 18.42 0 3.7-1.79 7.45-1.79 11.26 0 1.69 1.48 2.38 3.35 2.05 5.63 1.39-.16 2.79.01 4.09.51-1.24.91-1.24 1.77 0 2.56 2.01-1.16 4.05-1.16 6.14 0 6.5-1.72 12.3-4.79 17.4-9.21.7.37 1.38.71 2.05 1.02-1.15 1.39-1.15 2.75 0 4.09 1.65-.84 2.33-2.2 2.05-4.09-.52-1.39-1.54-2.41-3.07-3.07 4.14-1.24 7.21-3.8 9.21-7.67 3.03-.58 5.76-1.78 8.19-3.58 1.01-4.36 1.36-8.84 1.02-13.3 1.17 4.59 1.35 9.36.51 14.33-1.6 1.25-2.79 2.79-3.58 4.6 2.17 3.22 3.57 6.9 4.09 10.74-.41 1.07-1.1 1.07-2.05 0a15.01 15.01 0 0 1-3.07 4.6c-3.68 2.05-7.43 3.08-11.26 3.07-5.9 5.52-12.43 10.32-19.44 14.33-7.72.87-15.4 2.06-23.02 3.58-6.29-2.22-12.6-4.43-18.93-6.65-2.62-2.72-3.3-5.79-2.05-9.21-5.41-9.16-11.55-9.84-18.42-2.05-5.39 1.48-8.97-.39-10.74-5.63.09-6.65-1.79-12.62-5.63-17.91-9.04-2.53-18.28-4.24-27.63-5.12-2.8-3.81-3.66-8.07-2.56-12.79 3.52-1.57 6.79-3.64 9.72-6.14-.52-.7-1.23-1.23-2.05-1.53-7.15-1.28-14.31-2.47-21.49-3.58-.93.84-1.63 1.89-2.05 3.07 1.23 1.39 2.26 2.94 3.07 4.6-1.42 8.77-6.37 12.7-14.84 11.77-3.15.77-6.23 1.8-9.21 3.07a188.13 188.13 0 0 1-20.98-5.63c2.49-.46 2.66-1.31.51-2.56-6.9-.05-13.89-.05-20.98 0-2.83-2.93-4.53-6.34-5.12-10.23-1.97-11.14-1.29-22.06 2.05-32.74.84-3.21 1.35-6.63 1.53-10.23l1.02 9.21 1.02-5.12c1.56 3.23 3.1 6.47 4.6 9.72 3.67.87 7.08.35 10.23-1.53l10.23 3.07c4.95-.32 10.07-.49 15.35-.51 1.99.31 3.69 1.16 5.12 2.56a7.38 7.38 0 0 0 2.56-2.05c2.48-5.23 2.65-10.35.51-15.35 1.08-9.51 1.25-19.11.51-28.65-3.93-2.05-8.19-3.08-12.79-3.07Z"/>
  <path fill="#9a6576" d="M283.63 350.16c.33 4.12-.01 8.27-1.02 12.28-.98-1.89-1.34-4.04-1.02-6.14l2.05-6.14Z"/>
  <path fill="#090909" d="M235.53 349.13c1.24-1.31 2.6-1.31 4.09 0-1.34 1.15-2.7 1.15-4.09 0Z"/>
  <path fill="#6e0c29" d="M473.96 349.13c.48 24.39 1.16 48.78 2.05 73.16-.51 3.56-.85 7.15-1.02 10.74-1.63-1.13-2.48-.45-2.56 2.05-.75-1.75-1.61-3.46-2.56-5.12-2.38-1.58-5.28-2.61-8.7-3.07-1.84.27-3.71.61-5.63 1.02.95 1.3 1.12 2.66.51 4.09-1.32-2.92-1.83-5.99-1.53-9.21.16-1.39-.01-2.79-.51-4.09-.68-1.36-1.36-1.36-2.05 0-.51 3.73-.68 7.5-.51 11.26-.63-.11-1.14-.45-1.53-1.02-.38 3.87-1.74 4.55-4.09 2.05-5.68 3.36-11 7.3-15.86 11.77-3.38.96-6.8 1.81-10.23 2.56-1.3 8.92-6.25 11.99-14.84 9.21-.36 2.22-1.55 4.44-3.58 6.65-9.16 4.29-16.32 2.07-21.49-6.65-2.81-2.88-6.05-3.56-9.72-2.05l-4.6-1.53c-1.85-4.6-4.58-8.69-8.19-12.28a43.167 43.167 0 0 1-12.79-5.63c-4.05-6.58-7.97-13.23-11.77-19.95-5.11-1.66-10.23-1.49-15.35.51-3.9-1.63-7.99-2.48-12.28-2.56.65-1.75.65-3.62 0-5.63-3.76.03-4.96 1.74-3.58 5.12-5.45 2.52-8.18.81-8.19-5.12-2.25-2.69-5.15-3.71-8.7-3.07v3.07h-3.07c-.26 7.31-3.5 9.7-9.72 7.16-1.59.54-3.14 1.23-4.6 2.05-3.06-1.26-6.13-.92-9.21 1.02-4.09-1.36-8.19-1.36-12.28 0-6.73-3.59-13.56-7-20.47-10.23-.59.21-1.12.56-1.53 1.02-.82-2.06-1.68-4.11-2.56-6.14-.51-9.03.17-17.89 2.05-26.61.58 3.9 2.29 7.31 5.12 10.23 7.08-.05 14.08-.05 20.98 0 2.14 1.24 1.97 2.1-.51 2.56a191.96 191.96 0 0 0 20.98 5.63c2.98-1.27 6.06-2.3 9.21-3.07 8.47.93 13.41-2.99 14.84-11.77-.81-1.67-1.84-3.22-3.07-4.6a7.428 7.428 0 0 1 2.05-3.07c7.18 1.11 14.34 2.3 21.49 3.58.81.31 1.52.84 2.05 1.53-2.93 2.5-6.21 4.57-9.72 6.14-1.1 4.72-.25 8.98 2.56 12.79 9.34.88 18.59 2.59 27.63 5.12 3.84 5.29 5.72 11.26 5.63 17.91 1.77 5.24 5.35 7.11 10.74 5.63 6.87-7.79 13.01-7.11 18.42 2.05-1.25 3.42-.57 6.49 2.05 9.21 6.33 2.22 12.64 4.44 18.93 6.65 7.62-1.52 15.3-2.71 23.02-3.58 7.02-4 13.54-8.81 19.44-14.33 3.82 0 7.58-1.02 11.26-3.07a15.01 15.01 0 0 0 3.07-4.6c.95 1.07 1.63 1.07 2.05 0 .67.31 1.35.65 2.05 1.02.97-1.58 1.31-3.29 1.02-5.12h-3.07c-.23-1.89-.57-3.77-1.02-5.63-.11-1.7.57-2.89 2.05-3.58a74.55 74.55 0 0 0 1.53-12.28c1.23-1.39 2.77-2.41 4.6-3.07-1.86-1.35-3.58-2.9-5.12-4.6 2.5-5.9 2.67-11.87.51-17.91a23.792 23.792 0 0 0-3.58-3.07c2.61-1 5.41-1.35 8.19-1.02.17-1.72 0-3.46-.51-5.12-1.03.86-2.23 1.2-3.58 1.02-.42-4.51-.59-9.29-.51-14.33.69-1.1 1.71-1.79 3.07-2.05a104.84 104.84 0 0 1 15.86 6.14c.95 1.22 1.29 2.58 1.02 4.09Z"/>
  <path fill="#170b10" d="M462.7 346.06c1.82 1.52 2.5 3.57 2.05 6.14h-3.07c-.18-2.17.16-4.22 1.02-6.14Z"/>
  <path fill="#0d0e0f" stroke="#0d0e0f" d="M504.66 52.38c.26 8.03-.08 16.07-1.02 24.05.4 6.15 1.78 12.2 4.09 17.91-2.44 1.95-3.46 4.51-3.07 7.67.48 5.99 1.17 11.96 2.05 17.91-.07 1.82-.41 3.7-1.02 5.63 2.06 23.66 3.43 47.38 4.09 71.12-.79.78-1.3 1.8-1.53 3.07-.93 10.56-1.61 21.13-2.05 31.72a84.793 84.793 0 0 0-4.6 23.54c.41 10.6 1.26 21.19 2.56 31.72.83 13.98.66 28-.51 41.95l2.05 26.61a85.842 85.842 0 0 0-2.05 19.95c.52 21.17 1.54 42.32 3.07 63.44.04 9.93-.64 19.85-2.05 29.68 2.46 7.92 2.46 15.76 0 23.54l2.05 6.14c-4.98 10.18-12.48 13.08-22.51 8.7a101.061 101.061 0 0 1-32.23-1.02 166.183 166.183 0 0 1-31.72 4.09c-12.93-1.62-25.9-2.98-38.88-4.09l-11.77.51a88.797 88.797 0 0 1-30.19 3.58 422.715 422.715 0 0 0-57.82-1.53c-12.59 4.74-25.21 4.74-37.86 0-7.85-.63-15.7-1.31-23.54-2.05-24.9-.28-49.8-.79-74.7-1.53-4.29.09-8.55.43-12.79 1.02-13.25-1.44-26.6-1.79-39.91-1.02-8.8-4.23-17.5-4.06-26.09.51-11.42-.32-22.85-.49-34.28-.51l-9.21 3.07c-4.91-1.32-9.86-2.52-14.84-3.58-3.84-1.62-5.88-4.52-6.14-8.7 5.09-12.18 6.46-24.8 4.09-37.86 1.18-6.93 1.87-13.94 2.05-20.98a371.82 371.82 0 0 1 0-54.23c.14-6.37-.55-12.74-2.05-18.93.92-3.74 1.77-7.49 2.56-11.26-.16 4.61 1.55 8.37 5.12 11.26 1.12 9.24 5.05 16.92 11.77 23.02 4.6.51 7.16 3.07 7.67 7.67 2.32 10.61 2.49 21.19.51 31.72l1.53 18.42 1.02-8.19c.81 4.35.64 8.62-.51 12.79a9.383 9.383 0 0 1 2.05 4.6c-3.02 7.13-3.71 14.46-2.05 22l-2.05 5.12c1.55 3.63 4.1 6.18 7.67 7.67 4.44-2.34 9.22-3.7 14.33-4.09l15.86 2.56a231.72 231.72 0 0 0 31.72 11.26c6.5 2.54 12.64 2.03 18.42-1.53 4.06 1.65 7.99 2.68 11.77 3.07 8.05-1.03 15.72-3.08 23.02-6.14l5.12.51c5.35 2.99 11.14 4.52 17.4 4.6 5.24-1.57 10.36-1.23 15.35 1.02a141.88 141.88 0 0 1 28.65-5.63 78.1 78.1 0 0 0 11.26-4.09l31.72-1.02c1.83-.42 3.2-1.45 4.09-3.07 4.03-.09 7.78-1.11 11.26-3.07 1.36-.68 1.36-1.36 0-2.05l4.09-1.02c-1.42-.91-1.25-1.42.51-1.53a121.89 121.89 0 0 0 17.91 3.07 6.622 6.622 0 0 0 3.07 3.07c1.23-2.76 3.27-4.64 6.14-5.63 8.86-.68 17.75-.68 26.61 0 2.6 2.11 4.99 1.94 7.16-.51a7.063 7.063 0 0 0 4.09 2.05c5.92-1.29 11.9-2.31 17.91-3.07 3.44 1.27 3.26 2.12-.51 2.56 4.93 2.62 10.04 3.65 15.35 3.07 8.51 6.14 17.04 6.14 25.58 0 5.03-.25 10.01-1.11 14.84-2.56 7.55 1.7 15.29 2.38 23.02 2.05a5.02 5.02 0 0 1 .51-3.07h10.23c1.75.98 3.65 1.67 5.63 2.05l5.12-3.07c3.3.94 6.37.26 9.21-2.05 5.44 2.25 7.14 5.83 5.12 10.74 1.94 1.84 3.65 3.9 5.12 6.14 6.18 1.79 9.08-.43 8.7-6.65-3.46-6.99-6.53-14.16-9.21-21.49-.9-2.91-2.61-3.59-5.12-2.05-.68-1.36-.68-2.73 0-4.09 1.88 1.36 2.39 1.19 1.53-.51 1.71-3.07 2.39-6.14 2.05-9.21 1.14-5.44 2.16-10.89 3.07-16.37l-1.02-1.02c1.12-4.75 2.14-9.53 3.07-14.33-.07-8.59-.07-17.28 0-26.09-.92-3.27-1.95-6.51-3.07-9.72l1.02-1.02c-.75-4.08-1.44-8.17-2.05-12.28 2.24-2.95 4.11-6.19 5.63-9.72 1-5.43 1.86-10.89 2.56-16.37-.21-.59-.56-1.12-1.02-1.53 2.25-1.72 2.93-3.77 2.05-6.14 1.98-.12 3.35-.98 4.09-2.56-.96-2.67-2.67-4.72-5.12-6.14-.11-.63-.45-1.14-1.02-1.53 1.48.27 2.85.1 4.09-.51-1.84-1.67-3.03-3.72-3.58-6.14-1.87-15.3-1.7-30.79.51-46.05-.2-3.84-.55-7.59-1.02-11.26l3.07-16.37c.01-2.14-.67-4.02-2.05-5.63l1.53-1.53c2.99-10.33 3.16-20.73.51-31.21.92-10.93 2.98-21.73 6.14-32.23a84.076 84.076 0 0 0-3.58-15.35c-.43-7.67-.6-15.35-.51-23.02.46-4.41 1.83-8.84 4.09-13.3l-2.05-5.12 1.02-1.02c-6.34-3.95-10.77-9.4-13.3-16.37-.21-28.14-.21-56.28 0-84.42 2.36-.5 4.75-.85 7.16-1.02-.48-1.74-.48-3.28 0-4.6-1.6-.33-2.79-1.18-3.58-2.56-1.39.9-2.92 1.24-4.6 1.02 2.33-1.3 4.89-2.32 7.67-3.07 2.34 1.31 4.42 3.05 6.14 5.12-.04 12.62-.04 25.24 0 37.86.1 2.2.95 3.91 2.56 5.12Z"/>
  <path fill="#150a0c" d="M250.88 457.6c-.78-1.91-1.8-3.62-3.07-5.12-.22-1.2.12-2.23 1.02-3.07 4.6 2.05 6.14 5.46 4.6 10.23-.72-.9-1.58-1.58-2.56-2.05Z"/>
  <path fill="#12090a" d="M175.16 442.25c.22 1.2-.12 2.23-1.02 3.07-2.1-1.14-3.46-2.84-4.09-5.12-.22-1.2.12-2.23 1.02-3.07 1.59 1.51 2.97 3.23 4.09 5.12Z"/>
  <path fill="#600422" d="M454.52 422.81c-.3 3.22.22 6.29 1.53 9.21.61-1.43.44-2.8-.51-4.09 1.86-.41 3.74-.75 5.63-1.02 3.42.46 6.32 1.49 8.7 3.07.95 1.65 1.81 3.36 2.56 5.12.08-2.49.93-3.17 2.56-2.05.17 12.63 0 25.25-.51 37.86-5.85 7.25-12.33 7.93-19.44 2.05-.36-10.41-.87-20.81-1.53-31.21.67-6.29 1.01-12.61 1.02-18.93Z"/>
  <path fill="#1d0e12" d="M401.31 418.72c1.93.22 3.29 1.24 4.09 3.07-2.33.78-3.7-.24-4.09-3.07Z"/>
  <path fill="#2f1218" d="M165.95 383.92c1.63 2.23 3 4.63 4.09 7.16a52.12 52.12 0 0 0 8.7 17.4c.72 6.22 3.11 11.68 7.16 16.37.5 1.3.67 2.71.51 4.09 2.89-.42 4.93.6 6.14 3.07-.06.56-.4.9-1.02 1.02-3.41-1.56-7.03-2.6-10.74-3.07-.13-2.23.05-4.47.51-6.65.11-2.27-.57-4.15-2.05-5.63-.35-2.42-.86-4.81-1.53-7.16-3.78-6.2-7.03-12.7-9.72-19.44-1.47-2.11-2.15-4.49-2.05-7.16Z"/>
  <path fill="#5e0821" d="M217.12 406.44c.86.35 1.2 1.03 1.02 2.05-.34 4.46 0 8.95 1.02 13.3 1-2.61 1.35-5.41 1.02-8.19-.18-1.02.17-1.7 1.02-2.05 1.45 1.85 3.5 2.53 6.14 2.05-.5 7.81-3.23 14.63-8.19 20.47-1.36 2.73-1.36 5.46 0 8.19 3.71 1.84 7.29 3.89 10.74 6.14l1.02-1.02c5.68 2.53 11.31 4.23 16.88 5.12 1.27 1.5 2.29 3.2 3.07 5.12-1.93.01-3.97.35-6.14 1.02l-2.05-2.05c-1.52 1.01-2.9 2.21-4.09 3.58 2.64 1.42 2.29 2.27-1.02 2.56-2.87.04-4.74-1.33-5.63-4.09-3.72-.02-7.64.15-11.77.51-1.78 1.21-2.8 2.92-3.07 5.12 1.53 2.22 3.06 4.44 4.6 6.65 7.03 1.15 14.19.47 21.49-2.05 1.78.75 3.7 1.09 5.63 1.02-.22 1.2.12 2.23 1.02 3.07.95-1.22 1.29-2.58 1.02-4.09 2.22-.43 4.27-.43 6.14 0 1.01 2.33 1.86 4.72 2.56 7.16.19-2.6.7-4.98 1.53-7.16.17 3.08 0 6.17-.51 9.21-.92.6-1.98.95-3.07 1.02-6.58-1.57-13.24-2.77-19.95-3.58-19.92-1.5-39.92-1.67-59.86-.51a120.19 120.19 0 0 0-26.09-2.05c9.18-2.39 18.39-2.73 27.63-1.02 2.5-.2 4.94-.89 7.16-2.05-.62-2-.28-4.04 1.02-6.14a96.723 96.723 0 0 0-19.44-1.53c-3.24 1.11-5.28 3.33-6.14 6.65l-3.07-1.53c1.18-.94 1.01-1.79-.51-2.56-.85 1.95-2.04 2.29-3.58 1.02-2.81-6.51-.76-10.44 6.14-11.77 7.79-1.3 15.65-2.15 23.54-2.56.14-2.16-.39-4.3-1.53-6.14-.76-1.17-1.61-1.17-2.56 0-1.01-1.52-2.21-2.9-3.58-4.09-.39.57-.9.91-1.53 1.02-1.13-1.88-2.5-3.6-4.09-5.12-.91.84-1.25 1.87-1.02 3.07a37.72 37.72 0 0 1-2.05-4.6l3.58-3.58 1.02 3.07c.91-7.1 3.13-12.9 6.65-17.4 1.47 1.48 2.16 3.36 2.05 5.63a24.74 24.74 0 0 0-.51 6.65c3.77.49 7.35 1.51 10.74 3.07.62-.13.96-.47 1.02-1.02 1.6 3.13 3.3 6.2 5.12 9.21-2.81.59-3.66 2.29-2.56 5.12l4.09 4.09c.93 7.06 4.34 12.52 10.23 16.37-2.64-5.39-4.51-11.18-5.63-17.4 1.6-1.21 2.46-2.91 2.56-5.12 1.49-.78 3.03-1.47 4.6-2.05.75-1.5 1.43-3.04 2.05-4.6 1.24-4.56 1.24-9.16 0-13.81 1.18-2.89 2.37-3.23 3.58-1.02.51-5.45.68-10.9.51-16.37Z"/>
  <path fill="#190c10" d="M193.58 455.55c2.86-.05 4.73 1.31 5.63 4.09.49 4.12 1.17 8.22 2.05 12.28-1.59-4.2-4.03-8.04-7.16-11.26-.5-1.66-.68-3.39-.51-5.12Z"/>
  <path fill="#1c0e14" d="M231.44 454.53c2.87-1.16 5.94-1.34 9.21-.51-2.95 1.86-6.02 2.03-9.21.51Z"/>
  <path fill="#0f070a" d="M197.67 441.23c3.05 2.03 5.1 4.76 6.14 8.19 1.12 6.21 2.99 12.01 5.63 17.4-5.89-3.86-9.3-9.31-10.23-16.37l-4.09-4.09c-1.1-2.83-.25-4.53 2.56-5.12Z"/>
  <path fill="#af8f9d" d="m218.14 408.48 2.05 5.12c.33 2.77-.03 5.58-1.02 8.19a44.067 44.067 0 0 1-1.02-13.3Z"/>
  <path fill="#1d0e12" d="M433.03 412.58h2.05c.28 1.89-.4 3.25-2.05 4.09-1.15-1.34-1.15-2.7 0-4.09Z"/>
  <path fill="#1d0e11" d="M459.63 400.3c1.68-.22 3.22.12 4.6 1.02.84 3.13.67 6.19-.51 9.21-4.99-1.92-6.35-5.34-4.09-10.23Z"/>
  <path fill="#650725" d="M221.21 400.3c.88 2.03 1.74 4.08 2.56 6.14.42-.46.95-.82 1.53-1.02a448.72 448.72 0 0 1 20.47 10.23c4.09-1.36 8.19-1.36 12.28 0 3.08-1.94 6.15-2.28 9.21-1.02 1.47-.82 3.01-1.51 4.6-2.05 6.22 2.54 9.46.15 9.72-7.16h3.07v-3.07c3.55-.64 6.45.38 8.7 3.07 0 5.93 2.74 7.63 8.19 5.12-1.37-3.38-.18-5.08 3.58-5.12.65 2.01.65 3.88 0 5.63 4.29.08 8.38.93 12.28 2.56 5.12-2 10.24-2.17 15.35-.51 3.79 6.73 7.72 13.38 11.77 19.95 3.93 2.56 8.25 4.46 12.79 5.63 3.6 3.59 6.33 7.68 8.19 12.28l4.6 1.53c3.67-1.51 6.91-.83 9.72 2.05 5.16 8.72 12.33 10.94 21.49 6.65 2.03-2.21 3.23-4.43 3.58-6.65 8.59 2.78 13.53-.29 14.84-9.21 3.44-.74 6.85-1.6 10.23-2.56A95.027 95.027 0 0 1 445.82 431c2.35 2.5 3.72 1.82 4.09-2.05.39.57.9.91 1.53 1.02.17 7.17 0 14.33-.51 21.49-4.62.78-9.22 1.64-13.81 2.56 5.09.34 10.04.51 14.84.51.82 6.94.31 13.76-1.53 20.47-16.4-.34-32.8.34-49.12 2.05-7.18-2.57-16.05-4.45-26.61-5.63a31.33 31.33 0 0 0-11.26 0c2.62.78 2.62 1.29 0 1.53-1.66-.56-3.37-.9-5.12-1.02.29-1.83-.05-3.54-1.02-5.12-2.47-1.45-2.98-3.15-1.53-5.12 2.32 1.62 5.22 2.13 8.7 1.53.89-1.62 1.92-3.16 3.07-4.6-2.83-7.55-7.94-10.11-15.35-7.67-.71 1.1-1.23 2.31-1.53 3.58-.34-4.09-2.21-7.16-5.63-9.21-2.02.96-3.55.28-4.6-2.05a20.8 20.8 0 0 1-5.63 1.53c1.3 1 1.3 1.85 0 2.56-3.34-4.95-6.41-10.08-9.21-15.35-1.14-1.31-2.16-1.31-3.07 0-.74.43-1.25 1.11-1.53 2.05l-1.02-2.05c-2.69 2.78-5.25 5.68-7.67 8.7a72.49 72.49 0 0 0-12.79 5.63c-2.12-2.57-3.65-2.4-4.6.51-1.61.27-3.16.79-4.6 1.53a55.956 55.956 0 0 0-11.77-6.14l-2.05 1.02c-.73 2.34-1.07 4.56-1.02 6.65 2.67.46 4.03 2 4.09 4.6 3.1.14 6.21-.2 9.21-1.02 1.88 1.28 3.92 1.97 6.14 2.05v3.07a93.341 93.341 0 0 0 15.35 3.07c4-2.85 8.44-4.9 13.3-6.14 2.38 1.86 4.6 3.92 6.65 6.14.4 3.18 1.26 6.28 2.56 9.21-1.59 3.46-4.32 4.82-8.19 4.09l-21.49-2.05c-4.31.22-8.4.9-12.28 2.05-7.91.71-15.77 1.91-23.54 3.58a19.636 19.636 0 0 1-3.58-8.7c-.69-.77-1.54-1.11-2.56-1.02-.83 2.18-1.34 4.57-1.53 7.16-.69-2.44-1.55-4.83-2.56-7.16-1.87-.43-3.92-.43-6.14 0 .27 1.51-.07 2.88-1.02 4.09-.91-.84-1.25-1.87-1.02-3.07-1.93.07-3.85-.28-5.63-1.02-7.3 2.51-14.46 3.2-21.49 2.05a984.51 984.51 0 0 1-4.6-6.65c.27-2.2 1.29-3.91 3.07-5.12 4.13-.36 8.05-.53 11.77-.51.89 2.77 2.76 4.13 5.63 4.09 3.32-.29 3.66-1.14 1.02-2.56 1.2-1.37 2.57-2.58 4.09-3.58l2.05 2.05c2.17-.67 4.21-1.01 6.14-1.02.98.46 1.83 1.15 2.56 2.05 1.53-4.77 0-8.19-4.6-10.23-.91.84-1.25 1.87-1.02 3.07-5.57-.88-11.2-2.59-16.88-5.12l-1.02 1.02c-3.45-2.25-7.03-4.3-10.74-6.14-1.36-2.73-1.36-5.46 0-8.19 4.95-5.83 7.68-12.65 8.19-20.47-2.64.49-4.69-.2-6.14-2.05v-11.26Z"/>
  <path fill="#5f0421" d="M322.51 432.02c2.88 6.13 6.8 11.59 11.77 16.37.41-.23.58-.58.51-1.02 1.3-.71 1.3-1.56 0-2.56 1.94-.25 3.83-.76 5.63-1.53 1.05 2.33 2.59 3.01 4.6 2.05 3.42 2.05 5.29 5.12 5.63 9.21.31-1.27.82-2.48 1.53-3.58 7.41-2.44 12.52.12 15.35 7.67a33.475 33.475 0 0 0-3.07 4.6c-3.48.6-6.38.08-8.7-1.53-1.45 1.96-.94 3.67 1.53 5.12.97 1.58 1.31 3.29 1.02 5.12 1.74.12 3.44.46 5.12 1.02 2.62-.24 2.62-.75 0-1.53 3.72-.68 7.54-.68 11.26 0 10.56 1.18 19.43 3.06 26.61 5.63-10.88.03-21.71-1.34-32.23-4.09-7.31 1.36-14.64 2.55-22 3.58l-18.93.51c-12.48 0-24.95-.67-37.35-2.05 3.88-1.14 7.97-1.82 12.28-2.05l21.49 2.05c3.86.73 6.59-.64 8.19-4.09-1.3-2.93-2.16-6.03-2.56-9.21a56.008 56.008 0 0 0-6.65-6.14c-4.86 1.24-9.3 3.29-13.3 6.14a93.341 93.341 0 0 1-15.35-3.07v-3.07c-2.22-.08-4.26-.76-6.14-2.05-3 .82-6.11 1.16-9.21 1.02-.06-2.61-1.43-4.14-4.09-4.6-.05-2.09.29-4.31 1.02-6.65l2.05-1.02c4.23 1.61 8.15 3.66 11.77 6.14 1.45-.75 3-1.27 4.6-1.53.95-2.91 2.49-3.08 4.6-.51 4-2.25 8.26-4.13 12.79-5.63 2.42-3.02 4.98-5.92 7.67-8.7l1.02 2.05c.28-.94.8-1.62 1.53-2.05Z"/>
  <path fill="#1f0d14" d="M283.63 450.44c3.48-.33 6.89.01 10.23 1.02l-5.12 1.02c-2.19-.06-3.89-.74-5.12-2.05Z"/>
  <path fill="#13090c" d="M334.79 447.37c.07.45-.1.79-.51 1.02-4.96-4.78-8.89-10.24-11.77-16.37.91-1.31 1.93-1.31 3.07 0 2.8 5.27 5.87 10.4 9.21 15.35Z"/>
  <path fill="#650725" d="M139.35 388.02c1.33 3.85 2.01 7.95 2.05 12.28-.61 4.91.07 9.34 2.05 13.3 1.55-.01 2.75-.69 3.58-2.05.57-2.93.39-5.82-.51-8.7 0-1.85.68-3.39 2.05-4.6 4.83-.19 9.6-.19 14.33 0v-3.07c2.91.16 4.62-1.2 5.12-4.09 2.69 6.74 5.94 13.25 9.72 19.44.67 2.35 1.19 4.74 1.53 7.16-3.52 4.5-5.74 10.29-6.65 17.4l-1.02-3.07-3.58 3.58c.58 1.58 1.26 3.12 2.05 4.6.63 2.27 1.99 3.98 4.09 5.12.91-.84 1.25-1.87 1.02-3.07.63-.11 1.14-.45 1.53-1.02 1.37 1.2 2.58 2.57 3.58 4.09.95-1.17 1.8-1.17 2.56 0 1.14 1.84 1.68 3.98 1.53 6.14-7.89.4-15.75 1.26-23.54 2.56-6.9 1.33-8.95 5.25-6.14 11.77 1.54 1.27 2.74.93 3.58-1.02 1.52.77 1.69 1.62.51 2.56l3.07 1.53c.86-3.33 2.9-5.54 6.14-6.65a97.4 97.4 0 0 1 19.44 1.53c-1.3 2.1-1.64 4.14-1.02 6.14a18.906 18.906 0 0 1-7.16 2.05c-9.24-1.7-18.45-1.36-27.63 1.02a837.87 837.87 0 0 0-36.84 0c-3.81-1.22-7.77-1.9-11.77-2.05-5.12.6-10.13 1.98-14.84 4.09-2.92-.58-5.82-1.26-8.7-2.05-5.63 1.34-11.26 1.34-16.88 0-7.1 2.57-14.27 2.4-21.49-.51-2.43-1.78-3.79-4.17-4.09-7.16.78-3.71 1.98-7.31 3.58-10.74l1.02-31.72c1.47-4.09 1.65-8.19.51-12.28.63.11 1.14.45 1.53 1.02.94-3.77 1.62-3.43 2.05 1.02.72-1.61 1.57-3.15 2.56-4.6 1.53-.6 2.56-.09 3.07 1.53-2.37 6.07-.67 10.85 5.12 14.33l1.02-1.53c-.83-1.82-1.51-3.7-2.05-5.63 4.65-.79 9.26-1.82 13.81-3.07 4.88 1.05 9.9 1.22 14.84.51 4.21-2.11 8.68-3.66 13.3-4.6.36-2.09.36-3.96 0-5.63l3.07-.51a78.822 78.822 0 0 0 19.44 7.16c1.76-1.08 3.32-2.47 4.6-4.09l1.02 4.09c.24-1.27.75-2.29 1.53-3.07-.16 1.39.01 2.79.51 4.09 3.45 3.79 6.54 7.9 9.21 12.28-.15-4.73-.49-9.51-1.02-14.33-1.61-2.48-3.82-3.84-6.65-4.09.43-.74 1.11-1.25 2.05-1.53-1.46-.22-2.85-.74-4.09-1.53.21-.59.56-1.12 1.02-1.53 3.27-.1 6.34-.79 9.21-2.05.52-1.61-.16-2.98-2.05-4.09-.22-3.98.3-7.97 1.53-11.77 1.06 3.32 1.75 6.76 2.05 10.23.5-1.66.68-3.39.51-5.12Z"/>
  <path fill="#1f0e12" d="M109.67 416.67c1.75 2.7 3.45 5.43 5.12 8.19l-1.02 1.02c-2.17-2.64-3.54-5.71-4.09-9.21Z"/>
  <path fill="#0d0608" d="M83.07 420.76c3.75-.15 4.77 1.38 3.07 4.6-2.14.27-3.5-.75-4.09-3.07.57-.39.91-.9 1.02-1.53Z"/>
  <path fill="#150a0d" d="M156.74 404.39c3.36 4.66 5.57 9.78 6.65 15.35-3.7-4.45-5.92-9.57-6.65-15.35Z"/>
  <path fill="#b799a5" d="m141.39 400.3 2.05 10.23v3.07c-1.97-3.96-2.66-8.4-2.05-13.3Z"/>
  <path fill="#0e0609" d="M51.34 409.51c2.13 1.93 3.49 4.32 4.09 7.16.53 1.91 1.21 3.79 2.05 5.63l-1.02 1.53c-5.78-3.48-7.49-8.26-5.12-14.33Z"/>
  <path fill="#070304" d="M129.11 405.41c2.83.25 5.04 1.61 6.65 4.09.53 4.82.87 9.6 1.02 14.33a80.491 80.491 0 0 0-9.21-12.28c-.5-1.3-.67-2.71-.51-4.09.34-1.02 1.02-1.71 2.05-2.05Z"/>
  <path fill="#670826" d="m215.07 367.55 2.05 35.81v3.07c.17 5.46 0 10.93-.51 16.37-1.21-2.2-2.4-1.86-3.58 1.02 1.24 4.65 1.24 9.26 0 13.81-.61 1.56-1.3 3.1-2.05 4.6-1.58.58-3.12 1.26-4.6 2.05-.1 2.2-.95 3.91-2.56 5.12-1.04-3.42-3.09-6.15-6.14-8.19-1.81-3.01-3.52-6.08-5.12-9.21-1.21-2.47-3.25-3.49-6.14-3.07.16-1.39-.01-2.79-.51-4.09-4.05-4.7-6.44-10.15-7.16-16.37a52.12 52.12 0 0 1-8.7-17.4c1.64-.81 2.32-2.17 2.05-4.09 2.79-.24 5.18.61 7.16 2.56 3.41.68 6.82.68 10.23 0 4.97-3.32 9.75-6.91 14.33-10.74 1.92.86 4.04 1.22 6.14 1.02.57-3.99 1.59-7.74 3.07-11.26v2.05c-.2 5.5.32 11 1.53 16.37.51-2.36.68-4.75.51-7.16v-12.28Z"/>
  <path fill="#110a0b" d="M96.37 383.92c2.47.2 3.49 1.56 3.07 4.09-3.53.24-4.56-1.13-3.07-4.09Z"/>
  <path fill="#31131c" d="M451.45 354.25v4.09c3.14.39 4.16-.64 3.07-3.07 1.35.17 2.55-.17 3.58-1.02.5 1.66.68 3.39.51 5.12-2.77-.33-5.58.03-8.19 1.02 1.29.9 2.49 1.93 3.58 3.07 2.16 6.04 1.99 12.01-.51 17.91 1.54 1.71 3.26 3.25 5.12 4.6-1.84.66-3.37 1.68-4.6 3.07-.18 4.13-.69 8.23-1.53 12.28-1.48.69-2.16 1.88-2.05 3.58.45 1.85.79 3.73 1.02 5.63h3.07c.29 1.83-.05 3.54-1.02 5.12-.67-.36-1.36-.7-2.05-1.02-.52-3.85-1.92-7.52-4.09-10.74.79-1.82 1.98-3.35 3.58-4.6.83-4.96.66-9.74-.51-14.33-.43-1.63-1.12-3.19-2.05-4.6 1.58-3.15 2.27-6.56 2.05-10.23-.18-3.93-.52-7.86-1.02-11.77-.28-1.92.41-3.29 2.05-4.09Z"/>
  <path fill="#a46477" d="m213.02 370.62 2.05 9.21c.17 2.4 0 4.81-.51 7.16a63.458 63.458 0 0 1-1.53-16.37Z"/>
  <path fill="#c2979e" d="M215.07 367.55c.06-.56.4-.9 1.02-1.02a333.01 333.01 0 0 1 1.02 36.84l-2.05-35.81Z"/>
  <path fill="#170c11" d="M243.72 364.48c2.2.59 2.54 1.78 1.02 3.58-2.6 1.62-5.33 2.65-8.19 3.07 2.9-1.7 5.28-3.92 7.16-6.65Z"/>
  <path fill="#210e14" d="M165.95 383.92c-5.08-8.79-9-18-11.77-27.63 5.03 8.7 8.99 17.97 11.77 27.63Z"/>
  <path fill="#1a0c0f" d="M80 357.32c.75 1.24 1.77 2.26 3.07 3.07-1.49 2.99-2.51 6.06-3.07 9.21-.98-.46-1.83-1.15-2.56-2.05-1.69-4.72-1.86-9.5-.51-14.33.67 1.72 1.69 3.09 3.07 4.09Z"/>
</svg>